<svg width="24" height="24" viewBox="0 0 24 24" fill="none" xmlns="http://www.w3.org/2000/svg">
<path d="M20.25 12V19.5C20.25 19.8978 20.092 20.2794 19.8107 20.5607C19.5294 20.842 19.1478 21 18.75 21H4.5C4.10218 21 3.72064 20.842 3.43934 20.5607C3.15804 20.2794 3 19.8978 3 19.5V5.25C3 4.85218 3.15804 4.47064 3.43934 4.18934C3.72064 3.90804 4.10218 3.75 4.5 3.75H12C12.1989 3.75 12.3897 3.82902 12.5303 3.96967C12.671 4.11032 12.75 4.30109 12.75 4.5C12.75 4.69891 12.671 4.88968 12.5303 5.03033C12.3897 5.17098 12.1989 5.25 12 5.25H4.5V19.5H18.75V12C18.75 11.8011 18.829 11.6103 18.9697 11.4697C19.1103 11.329 19.3011 11.25 19.5 11.25C19.6989 11.25 19.8897 11.329 20.0303 11.4697C20.171 11.6103 20.25 11.8011 20.25 12ZM18.375 2.25C17.7075 2.25 17.055 2.44794 16.5 2.81879C15.9449 3.18964 15.5124 3.71674 15.2569 4.33344C15.0015 4.95014 14.9346 5.62874 15.0648 6.28343C15.1951 6.93812 15.5165 7.53948 15.9885 8.01149C16.4605 8.48349 17.0619 8.80493 17.7166 8.93515C18.3713 9.06538 19.0499 8.99854 19.6666 8.74309C20.2833 8.48765 20.8104 8.05507 21.1812 7.50005C21.5521 6.94503 21.75 6.29251 21.75 5.625C21.75 4.72989 21.3944 3.87145 20.7615 3.23851C20.1285 2.60558 19.2701 2.25 18.375 2.25Z" fill="#E9F1F3"/>
</svg>
