<svg width="24" height="24" viewBox="0 0 24 24" fill="none" xmlns="http://www.w3.org/2000/svg">
<path d="M22.4234 9.11812C22.3297 8.82986 22.1527 8.5758 21.9148 8.38795C21.6769 8.2001 21.3887 8.08686 21.0866 8.06249L15.5553 7.61624L13.4197 2.45155C13.3042 2.17013 13.1076 1.92941 12.855 1.76C12.6023 1.59058 12.305 1.50012 12.0008 1.50012C11.6966 1.50012 11.3992 1.59058 11.1466 1.76C10.8939 1.92941 10.6974 2.17013 10.5819 2.45155L8.44812 7.6153L2.91406 8.06249C2.61141 8.08809 2.32305 8.20243 2.0851 8.39118C1.84714 8.57994 1.67019 8.83472 1.5764 9.12361C1.4826 9.41249 1.47615 9.72263 1.55784 10.0152C1.63953 10.3077 1.80573 10.5696 2.03562 10.7681L6.25437 14.4084L4.96906 19.8516C4.89814 20.1471 4.9164 20.457 5.02154 20.7422C5.12667 21.0273 5.31396 21.2749 5.55974 21.4537C5.80553 21.6325 6.09878 21.7344 6.40246 21.7466C6.70613 21.7588 7.00661 21.6807 7.26593 21.5222L12.0003 18.6084L16.7375 21.5222C16.9968 21.6798 17.2969 21.7571 17.6001 21.7445C17.9032 21.7318 18.1958 21.6298 18.4411 21.4512C18.6864 21.2725 18.8733 21.0254 18.9784 20.7407C19.0835 20.4561 19.102 20.1467 19.0316 19.8516L17.7416 14.4075L21.9603 10.7672C22.1921 10.569 22.3598 10.3065 22.4422 10.013C22.5247 9.71939 22.5181 9.40796 22.4234 9.11812ZM20.9853 9.63093L16.4197 13.5684C16.3156 13.6582 16.2381 13.7748 16.1958 13.9056C16.1535 14.0364 16.1479 14.1763 16.1797 14.31L17.5747 20.1975C17.5783 20.2056 17.5787 20.2148 17.5757 20.2232C17.5727 20.2315 17.5667 20.2385 17.5587 20.2425C17.5419 20.2556 17.5372 20.2528 17.5231 20.2425L12.3931 17.0878C12.2748 17.0157 12.1389 16.9777 12.0003 16.9781V2.99999C12.0228 2.99999 12.0256 3.00749 12.0331 3.02437L14.3441 8.61187C14.3968 8.73958 14.4838 8.85024 14.5955 8.93164C14.7072 9.01303 14.8391 9.06199 14.9769 9.07312L20.9684 9.55687C20.9834 9.55687 20.9919 9.55687 21.0003 9.58405C21.0087 9.61124 21.0003 9.62155 20.9853 9.63093Z" fill="#E9F1F3"/>
</svg>
