<svg width="24" height="24" viewBox="0 0 24 24" fill="none" xmlns="http://www.w3.org/2000/svg">
<path d="M12 2.25002C10.0716 2.25002 8.18657 2.82184 6.58319 3.89319C4.97982 4.96453 3.73013 6.48727 2.99218 8.26885C2.25422 10.0504 2.06114 12.0108 2.43735 13.9021C2.81355 15.7935 3.74215 17.5307 5.10571 18.8943C6.46928 20.2579 8.20656 21.1865 10.0979 21.5627C11.9892 21.9389 13.9496 21.7458 15.7312 21.0078C17.5127 20.2699 19.0355 19.0202 20.1068 17.4168C21.1782 15.8134 21.75 13.9284 21.75 12C21.7473 9.41499 20.7192 6.93663 18.8913 5.10874C17.0634 3.28085 14.585 2.25275 12 2.25002ZM15.75 12.75H10.0603L11.7806 14.4694C11.8503 14.5391 11.9056 14.6218 11.9433 14.7128C11.981 14.8039 12.0004 14.9015 12.0004 15C12.0004 15.0986 11.981 15.1961 11.9433 15.2872C11.9056 15.3782 11.8503 15.461 11.7806 15.5306C11.7109 15.6003 11.6282 15.6556 11.5372 15.6933C11.4461 15.731 11.3486 15.7504 11.25 15.7504C11.1515 15.7504 11.0539 15.731 10.9628 15.6933C10.8718 15.6556 10.7891 15.6003 10.7194 15.5306L7.71938 12.5306C7.64965 12.461 7.59433 12.3783 7.55658 12.2872C7.51884 12.1962 7.49941 12.0986 7.49941 12C7.49941 11.9015 7.51884 11.8039 7.55658 11.7128C7.59433 11.6218 7.64965 11.539 7.71938 11.4694L10.7194 8.46939C10.8601 8.32866 11.051 8.2496 11.25 8.2496C11.449 8.2496 11.6399 8.32866 11.7806 8.46939C11.9214 8.61012 12.0004 8.80099 12.0004 9.00002C12.0004 9.19904 11.9214 9.38991 11.7806 9.53064L10.0603 11.25H15.75C15.9489 11.25 16.1397 11.329 16.2803 11.4697C16.421 11.6103 16.5 11.8011 16.5 12C16.5 12.1989 16.421 12.3897 16.2803 12.5303C16.1397 12.671 15.9489 12.75 15.75 12.75Z" fill="#E9F1F3"/>
</svg>
