<svg width="393" height="852" viewBox="0 0 393 852" fill="none" xmlns="http://www.w3.org/2000/svg">
<path opacity="0.05" d="M226.152 852L196.5 425.763L166.848 852H226.152ZM98.7652 852L196.5 425.763L32.4171 852H98.7652ZM-182.031 754.257L196.5 425.793L-182.031 658.821V754.257ZM-53.4097 852L196.5 425.763L-148.989 852H-53.4097ZM575.031 658.821L196.5 425.763L575.031 754.227V658.791V658.821ZM575.031 498.834L196.5 425.763L575.031 569.864V498.864V498.834ZM360.583 852L196.5 425.763L294.235 852H360.583ZM-182.031 569.864L196.5 425.763L-182.031 498.834V569.834V569.864ZM541.989 852L196.5 425.763L446.41 852H541.989ZM102.524 0L196.5 425.763L163.431 0H102.524ZM575.031 197.735L196.5 425.793L575.031 277.373V197.735ZM575.031 0H547.956L196.5 425.763L575.031 91.0871V0ZM364.5 0L196.5 425.763L441.231 0H364.5ZM575.031 356.657L196.5 425.763L575.031 423.84V356.657ZM-182.031 423.84L196.5 425.763L-182.031 356.657V423.84ZM229.569 0L196.5 425.763L290.476 0H229.569ZM-182.031 0V91.0871L196.5 425.763L-154.956 0H-182.031ZM-182.031 277.373L196.5 425.793L-182.031 197.735V277.373ZM-48.2311 0L196.5 425.763L28.5003 0H-48.2311Z" fill="white" fill-opacity="0.69"/>
</svg>
