<svg width="24" height="24" viewBox="0 0 24 24" fill="none" xmlns="http://www.w3.org/2000/svg">
<path d="M23.0864 7.4112C21.8624 4.47133 19.5258 2.13447 16.5864 0.910302C13.6488 -0.303414 10.3509 -0.303414 7.41359 0.910302C5.95316 1.5083 4.62932 2.39488 3.51973 3.5169C1.26661 5.7641 0 8.81551 0 11.9983C0 15.1812 1.26666 18.2325 3.51973 20.4798C5.7666 22.7332 8.81758 24 12 24C15.1824 24 18.2333 22.7332 20.4802 20.4798C22.7333 18.2326 24 15.1812 24 11.9983C24.0041 10.4242 23.6937 8.86447 23.0864 7.4112ZM22.0864 15.4518L20.8593 14.9455H20.8603C21.1051 14.2079 21.2551 13.4411 21.3062 12.6649H22.6395C22.5864 13.6151 22.3999 14.5538 22.0864 15.4518ZM1.90506 15.4518C1.59778 14.5517 1.41338 13.614 1.36026 12.665H2.6936C2.74464 13.4412 2.89464 14.2069 3.13943 14.9455L1.90506 15.4518ZM3.13943 9.0509C2.89464 9.7885 2.74464 10.5553 2.6936 11.3314H1.36026C1.41339 10.3813 1.59985 9.44263 1.91338 8.54464L3.13943 9.0509ZM16.6666 11.9982C16.6697 13.0067 16.3416 13.9881 15.7333 14.7925L17.1395 16.1927L16.1926 17.1397L14.7926 15.7333L14.7937 15.7322C13.9885 16.3386 13.0072 16.6657 11.9998 16.6657C10.9924 16.6657 10.0113 16.3386 9.20596 15.7322L7.80596 17.1387L6.85908 16.1916L8.26532 14.7915L8.26636 14.7925C7.66012 13.9872 7.33303 13.0058 7.33303 11.9982C7.33303 10.9907 7.66012 10.0094 8.26636 9.20399L6.86012 7.80379L7.807 6.85678L9.207 8.26322L9.20596 8.26426C10.0112 7.65793 10.9924 7.3308 11.9998 7.3308C13.0072 7.3308 13.9884 7.65793 14.7937 8.26426L16.1937 6.85782L17.1406 7.80483L15.7343 9.20503L15.7333 9.20399C16.3416 10.0083 16.6697 10.9896 16.6666 11.9982ZM14.9468 3.13648C14.2073 2.89582 13.4416 2.74581 12.6666 2.69058V1.35706C13.6166 1.40915 14.5541 1.59563 15.453 1.91025L14.9468 3.13648ZM9.05297 20.8597C9.7915 21.1046 10.5571 21.2546 11.3332 21.3056V22.6392C10.3832 22.586 9.44569 22.3995 8.54679 22.086L9.05297 20.8597ZM21.306 11.3312C21.255 10.5551 21.105 9.78935 20.8602 9.05069L22.0945 8.54123C22.4029 9.44239 22.5862 10.3811 22.6393 11.3312H21.306ZM21.5789 7.31092L20.3466 7.81931C19.9987 7.12546 19.5633 6.47852 19.0539 5.89299L19.9935 4.95329V4.95225C20.6289 5.66173 21.1633 6.45662 21.5799 7.313L21.5789 7.31092ZM19.0456 4.00513L18.106 4.94484V4.94588C17.5206 4.43538 16.8737 4.00095 16.18 3.65194L16.6862 2.41635C17.5435 2.83204 18.3383 3.36544 19.0466 4.00303L19.0456 4.00513ZM11.3331 1.35684V2.69036C10.5581 2.74558 9.79246 2.8956 9.05286 3.13626L8.54455 1.9038C9.44454 1.59333 10.3831 1.40997 11.3331 1.35684ZM7.31335 2.41638L7.82167 3.64884V3.64988C7.12791 3.99785 6.48106 4.43333 5.89562 4.94278L4.95604 4.00308H4.955C5.66124 3.36446 6.455 2.82998 7.31335 2.41638ZM4.00615 4.95006L4.94676 5.89081C4.43634 6.4763 4.00197 7.12327 3.65301 7.81713L2.41968 7.31082C2.83738 6.45446 3.37074 5.66059 4.00615 4.95006ZM2.4197 16.685L3.65199 16.1766L3.65304 16.1777C4.00096 16.8715 4.43637 17.5185 4.94575 18.104L4.00618 19.0437V19.0447C3.37077 18.3342 2.8364 17.5404 2.41973 16.684L2.4197 16.685ZM4.95303 19.9908L5.8926 19.0511H5.89364C6.47906 19.5616 7.12594 19.996 7.81969 20.3451L7.31346 21.5796C6.45618 21.1639 5.66138 20.6305 4.95303 19.9929L4.95303 19.9908ZM12.6666 22.6391V21.3056C13.4427 21.2545 14.2083 21.1045 14.9468 20.8597L15.4551 22.0922C14.5551 22.4005 13.6166 22.5849 12.6666 22.6391ZM16.6863 21.5785L16.178 20.3461C16.8728 20.0002 17.5207 19.5657 18.1041 19.0532L19.0436 19.9929H19.0447C18.3385 20.6315 17.5447 21.1659 16.6863 21.5795L16.6863 21.5785ZM19.9925 19.0448L19.0529 18.1051C19.5675 17.5228 20.0029 16.8758 20.3467 16.1788L21.579 16.6872V16.6862C21.1623 17.5425 20.6279 18.3364 19.9935 19.0459L19.9925 19.0448Z" fill="#E9F1F3"/>
<path d="M12 8.66444C10.4157 8.66965 9.05524 9.79273 8.74911 11.3472C8.44391 12.9026 9.27828 14.457 10.7429 15.0613C12.2085 15.6656 13.8959 15.1509 14.7751 13.833C15.6543 12.5141 15.4803 10.7587 14.3605 9.63778C13.7334 9.01375 12.8845 8.6637 12.0001 8.66474L12 8.66444Z" fill="#E9F1F3"/>
</svg>
