<svg width="29" height="29" viewBox="0 0 29 29" fill="none" xmlns="http://www.w3.org/2000/svg">
<path fill-rule="evenodd" clip-rule="evenodd" d="M2.4766 1.52588e-05H26.5234C27.8872 1.52588e-05 29 1.11279 29 2.47662V26.5234C29 27.8872 27.8872 29 26.5234 29H2.4766C1.11278 29 0 27.8872 0 26.5234V2.47662C0 1.11279 1.11278 1.52588e-05 2.4766 1.52588e-05ZM14.5 10.9997C16.4389 10.9997 17.9986 12.5612 17.9986 14.4983C17.9986 16.4372 16.4371 17.9969 14.5 17.9969C12.5611 17.9969 11.0014 16.4354 11.0014 14.4983C11.0014 12.5594 12.5629 10.9997 14.5 10.9997Z" fill="#E9F1F3"/>
</svg>
