<svg width="29" height="29" viewBox="0 0 29 29" fill="none" xmlns="http://www.w3.org/2000/svg">
<path fill-rule="evenodd" clip-rule="evenodd" d="M2.4766 0H26.5234C27.8872 0 29 1.11278 29 2.4766V26.5234C29 27.8872 27.8872 29 26.5234 29H2.4766C1.11278 29 0 27.8872 0 26.5234V2.4766C0 1.11278 1.11278 0 2.4766 0ZM18.0698 21.57C18.0698 19.6311 19.6312 18.0714 21.5684 18.0714C23.4877 18.0714 25.067 19.6329 25.067 21.57C25.067 23.4893 23.4877 25.0686 21.5684 25.0686C19.6295 25.0686 18.0698 23.4894 18.0698 21.57ZM3.92968 7.4299C3.92968 5.5106 5.50891 3.93132 7.42826 3.93132C9.36716 3.93132 10.9268 5.51055 10.9268 7.4299C10.9268 9.3688 9.36539 10.9285 7.42826 10.9285C5.50896 10.9285 3.92968 9.36703 3.92968 7.4299Z" fill="#E9F1F3"/>
</svg>
