<svg width="29" height="29" viewBox="0 0 29 29" fill="none" xmlns="http://www.w3.org/2000/svg">
<path fill-rule="evenodd" clip-rule="evenodd" d="M2.4766 3.05176e-05H26.5234C27.8872 3.05176e-05 29 1.11281 29 2.47663V26.5234C29 27.8873 27.8872 29 26.5234 29H2.4766C1.11278 29 0 27.8873 0 26.5234V2.47663C0 1.11281 1.11278 3.05176e-05 2.4766 3.05176e-05ZM10.9995 14.4998C10.9995 12.5609 12.561 11.0012 14.4981 11.0012C16.437 11.0012 17.9967 12.5626 17.9967 14.4998C17.9967 16.4387 16.4352 17.9983 14.4981 17.9983C12.5592 17.9983 10.9995 16.4369 10.9995 14.4998ZM18.0698 21.57C18.0698 19.6311 19.6312 18.0715 21.5684 18.0715C23.4877 18.0715 25.067 19.6329 25.067 21.57C25.067 23.4893 23.4877 25.0686 21.5684 25.0686C19.6295 25.0686 18.0698 23.4894 18.0698 21.57ZM3.92968 7.42993C3.92968 5.51063 5.50891 3.93135 7.42826 3.93135C9.36716 3.93135 10.9268 5.51058 10.9268 7.42993C10.9268 9.36883 9.36539 10.9285 7.42826 10.9285C5.50896 10.9285 3.92968 9.36706 3.92968 7.42993Z" fill="#E9F1F3"/>
</svg>
