<svg width="29" height="29" viewBox="0 0 29 29" fill="none" xmlns="http://www.w3.org/2000/svg">
<path fill-rule="evenodd" clip-rule="evenodd" d="M2.4766 3.05176e-05H26.5234C27.8872 3.05176e-05 29 1.11281 29 2.47663V26.5234C29 27.8873 27.8872 29 26.5234 29H2.4766C1.11278 29 0 27.8873 0 26.5234V2.47663C0 1.11281 1.11278 3.05176e-05 2.4766 3.05176e-05ZM21.5881 18.0878C23.527 18.0878 25.0866 19.6492 25.0866 21.5864C25.0866 23.5253 23.5252 25.0849 21.5881 25.0849C19.6492 25.0849 18.0895 23.5235 18.0895 21.5864C18.0895 19.6474 19.6509 18.0878 21.5881 18.0878ZM7.41194 3.91166C9.35085 3.91166 10.9105 5.47312 10.9105 7.41024C10.9105 9.34914 9.34907 10.9088 7.41194 10.9088C5.47304 10.9088 3.91336 9.34737 3.91336 7.41024C3.91336 5.47134 5.47482 3.91166 7.41194 3.91166ZM7.41194 18.0878C9.35085 18.0878 10.9105 19.6492 10.9105 21.5864C10.9105 23.5253 9.34907 25.0849 7.41194 25.0849C5.47304 25.0849 3.91336 23.5235 3.91336 21.5864C3.91336 19.6474 5.47482 18.0878 7.41194 18.0878ZM21.5881 3.91166C23.527 3.91166 25.0866 5.47312 25.0866 7.41024C25.0866 9.34914 23.5252 10.9088 21.5881 10.9088C19.6492 10.9088 18.0895 9.34737 18.0895 7.41024C18.0895 5.47134 19.6509 3.91166 21.5881 3.91166Z" fill="#E9F1F3"/>
</svg>
