<svg width="29" height="29" viewBox="0 0 29 29" fill="none" xmlns="http://www.w3.org/2000/svg">
<path fill-rule="evenodd" clip-rule="evenodd" d="M2.4766 0H26.5234C27.8872 0 29 1.11278 29 2.4766V26.5234C29 27.8872 27.8872 29 26.5234 29H2.4766C1.11278 29 0 27.8872 0 26.5234V2.4766C0 1.11278 1.11278 0 2.4766 0ZM14.5 10.9997C16.4389 10.9997 17.9986 12.5611 17.9986 14.4983C17.9986 16.4372 16.4371 17.9969 14.5 17.9969C12.5611 17.9969 11.0014 16.4354 11.0014 14.4983C11.0014 12.5594 12.5629 10.9997 14.5 10.9997ZM3.93104 21.5686C3.93104 19.6297 5.51028 18.0701 7.42963 18.0701C9.36853 18.0701 10.9282 19.6315 10.9282 21.5686C10.9282 23.4879 9.36675 25.0672 7.42963 25.0672C5.51032 25.0672 3.93104 23.488 3.93104 21.5686ZM7.42963 3.92986C9.36853 3.92986 10.9282 5.50909 10.9282 7.42844C10.9282 9.36735 9.36675 10.927 7.42963 10.927C5.51032 10.927 3.93104 9.36557 3.93104 7.42844C3.93104 5.50914 5.51028 3.92986 7.42963 3.92986ZM18.0715 7.42844C18.0715 5.50914 19.633 3.92986 21.5701 3.92986C23.4894 3.92986 25.0687 5.50909 25.0687 7.42844C25.0687 9.36735 23.4894 10.927 21.5701 10.927C19.6312 10.927 18.0715 9.36557 18.0715 7.42844ZM21.5701 18.0703C23.4894 18.0703 25.0687 19.6318 25.0687 21.5689C25.0687 23.4882 23.4894 25.0675 21.5701 25.0675C19.6312 25.0675 18.0715 23.4883 18.0715 21.5689C18.0715 19.63 19.633 18.0703 21.5701 18.0703Z" fill="#E9F1F3"/>
</svg>
