<svg width="29" height="29" viewBox="0 0 29 29" fill="none" xmlns="http://www.w3.org/2000/svg">
<path fill-rule="evenodd" clip-rule="evenodd" d="M2.4766 0H26.5234C27.8872 0 29 1.11278 29 2.4766V26.5234C29 27.8872 27.8872 29 26.5234 29H2.4766C1.11278 29 0 27.8872 0 26.5234V2.4766C0 1.11278 1.11278 0 2.4766 0ZM21.5703 10.9997C23.4896 10.9997 25.0689 12.5611 25.0689 14.4983C25.0689 16.4372 23.4896 17.9969 21.5703 17.9969C19.6314 17.9969 18.0717 16.4354 18.0717 14.4983C18.0717 12.5594 19.6332 10.9997 21.5703 10.9997ZM18.0717 24.0272C18.0717 22.0883 19.6332 20.5286 21.5703 20.5286C23.4896 20.5286 25.0689 22.0901 25.0689 24.0272C25.0689 25.9661 23.4896 27.5258 21.5703 27.5258C19.6314 27.5258 18.0717 25.9643 18.0717 24.0272ZM21.5703 1.47085C23.4896 1.47085 25.0689 3.03231 25.0689 4.96943C25.0689 6.90834 23.4896 8.46802 21.5703 8.46802C19.6314 8.46802 18.0717 6.90656 18.0717 4.96943C18.0717 3.03053 19.6332 1.47085 21.5703 1.47085ZM7.43017 10.9997C9.36908 10.9997 10.9288 12.5611 10.9288 14.4983C10.9288 16.4372 9.3673 17.9969 7.43017 17.9969C5.51087 17.9969 3.93159 16.4354 3.93159 14.4983C3.93159 12.5594 5.51082 10.9997 7.43017 10.9997ZM3.93159 24.0272C3.93159 22.0883 5.51082 20.5286 7.43017 20.5286C9.36908 20.5286 10.9288 22.0901 10.9288 24.0272C10.9288 25.9661 9.3673 27.5258 7.43017 27.5258C5.51087 27.5258 3.93159 25.9643 3.93159 24.0272ZM7.43017 1.47085C9.36908 1.47085 10.9288 3.03231 10.9288 4.96943C10.9288 6.90834 9.3673 8.46802 7.43017 8.46802C5.51087 8.46802 3.93159 6.90656 3.93159 4.96943C3.93159 3.03053 5.51082 1.47085 7.43017 1.47085Z" fill="#E9F1F3"/>
</svg>
