<svg width="112" height="122" viewBox="0 0 112 122" fill="none" xmlns="http://www.w3.org/2000/svg">
<path d="M111.675 41.1339C111.675 32.5622 105.876 26.2941 101.715 23.8798L66.2984 3.41422C60.7204 0.202625 51.9549 0.202625 46.3769 3.41422L10.9608 23.8798C6.79939 26.2941 1 32.5622 1 41.1339V82.0651C1 88.4661 5.36061 96.0854 10.9608 99.3412L46.3769 119.785C51.3794 122.664 61.2074 122.731 66.2984 119.785L101.715 99.3412C107.315 96.0854 111.675 88.4661 111.675 82.0651V41.1339Z" fill="url(#paint0_radial_31_13129)"/>
<path d="M111.365 83.1725V42.2413C111.365 36.5933 107.403 34.312 102.511 37.1249L67.0952 57.5905C62.2034 60.4256 58.2412 67.2917 58.2412 72.9397V113.871C58.2412 119.519 62.2034 121.8 67.0952 118.987L102.511 98.5217C107.403 95.6867 111.365 88.8205 111.365 83.1725Z" fill="url(#paint1_linear_31_13129)"/>
<path d="M65.9883 59.8054L101.404 39.3398C106.296 36.5047 110.258 38.8082 110.258 44.4562V85.3874C110.258 87.4694 109.705 89.7286 108.775 91.877C110.369 89.1084 111.365 85.9854 111.365 83.1725V42.2413C111.365 36.5933 107.403 34.312 102.511 37.1249L67.0951 57.5905C64.0183 59.3624 61.2957 62.7512 59.7241 66.4279C61.3178 63.6371 63.5535 61.2008 65.9883 59.8054Z" fill="#B2B4B3"/>
<path d="M10.1416 98.5217L45.5577 118.987C50.4496 121.822 54.4117 119.519 54.4117 113.871V72.9397C54.4117 67.2918 50.4496 60.4256 45.5577 57.5905L10.1416 37.1249C5.24977 34.2898 1.2876 36.5933 1.2876 42.2413V83.1725C1.2876 88.8205 5.24977 95.6867 10.1416 98.5217Z" fill="url(#paint2_linear_31_13129)"/>
<path d="M2.39435 85.3874V44.4562C2.39435 38.8082 6.35653 36.5269 11.2484 39.3398L46.6645 59.8054C49.1215 61.2229 51.335 63.6593 52.9287 66.4279C51.335 62.7512 48.6345 59.3624 45.5577 57.5905L10.1416 37.1249C5.24977 34.2898 1.2876 36.5933 1.2876 42.2413V83.1725C1.2876 85.9855 2.28368 89.1085 3.8774 91.8771C2.94773 89.7286 2.39435 87.4694 2.39435 85.3874Z" fill="#CBCBD0"/>
<path d="M47.4839 3.1263L12.0678 23.5698C7.17596 26.4048 7.17596 30.9675 12.0678 33.8026L47.4839 54.2682C52.3758 57.1032 60.3001 57.1032 65.192 54.2682L100.608 33.8026C105.5 30.9675 105.5 26.4048 100.608 23.5698L65.192 3.1263C60.3001 0.291234 52.3758 0.291234 47.4839 3.1263Z" fill="url(#paint3_linear_31_13129)"/>
<path d="M65.9441 52.0533C60.6317 54.8883 52.0433 54.8883 46.7309 52.0533L10.8721 32.9609C11.2484 33.2488 11.6025 33.5368 12.0674 33.8026L47.4835 54.2682C52.3753 57.1032 60.2997 57.1032 65.1915 54.2682L100.608 33.8026C101.072 33.5368 101.427 33.2488 101.803 32.9609L65.9441 52.0533Z" fill="white"/>
<path style="mix-blend-mode:screen" d="M47.4834 54.2682L12.0674 33.8026L10.1416 37.1249L45.5577 57.5905C50.4495 60.4256 54.4117 67.2917 54.4117 72.9397L65.1915 54.2682C60.2996 57.1032 52.3753 57.1032 47.4834 54.2682Z" fill="url(#paint4_linear_31_13129)"/>
<path d="M75.9492 67.8233C75.9492 64.9883 73.9571 63.8587 71.5222 65.2762C69.0874 66.6937 67.0952 70.1268 67.0952 72.9397C67.0952 75.7527 69.0874 76.9044 71.5222 75.4869C73.9571 74.0693 75.9492 70.6363 75.9492 67.8233Z" fill="url(#paint5_linear_31_13129)"/>
<path style="mix-blend-mode:multiply" d="M75.9492 67.8233C75.9492 64.9883 73.9571 63.8587 71.5222 65.2762C69.0874 66.6937 67.0952 70.1268 67.0952 72.9397C67.0952 75.7527 69.0874 76.9044 71.5222 75.4869C73.9571 74.0693 75.9492 70.6363 75.9492 67.8233Z" fill="url(#paint6_radial_31_13129)"/>
<path d="M102.511 83.1726C102.511 80.3375 100.519 79.2079 98.0842 80.6255C95.6494 82.043 93.6572 85.4761 93.6572 88.289C93.6572 91.1019 95.6494 92.2537 98.0842 90.8361C100.519 89.4186 102.511 85.9855 102.511 83.1726Z" fill="url(#paint7_linear_31_13129)"/>
<path style="mix-blend-mode:multiply" d="M102.511 83.1726C102.511 80.3375 100.519 79.2079 98.0842 80.6255C95.6494 82.043 93.6572 85.4761 93.6572 88.289C93.6572 91.1019 95.6494 92.2537 98.0842 90.8361C100.519 89.4186 102.511 85.9855 102.511 83.1726Z" fill="url(#paint8_radial_31_13129)"/>
<path d="M36.7036 98.5218C36.7036 95.6867 38.6958 94.5571 41.1306 95.9747C43.5655 97.3922 45.5576 100.825 45.5576 103.638C45.5576 106.451 43.5655 107.603 41.1306 106.185C38.6958 104.768 36.7036 101.335 36.7036 98.5218Z" fill="url(#paint9_linear_31_13129)"/>
<path style="mix-blend-mode:multiply" d="M36.7036 98.5218C36.7036 95.6867 38.6958 94.5571 41.1306 95.9747C43.5655 97.3922 45.5576 100.825 45.5576 103.638C45.5576 106.451 43.5655 107.603 41.1306 106.185C38.6958 104.768 36.7036 101.335 36.7036 98.5218Z" fill="url(#paint10_radial_31_13129)"/>
<path d="M36.7036 67.8234C36.7036 64.9883 38.6958 63.8587 41.1306 65.2763C43.5655 66.6938 45.5576 70.1269 45.5576 72.9398C45.5576 75.7527 43.5655 76.9045 41.1306 75.4869C38.6958 74.0694 36.7036 70.6363 36.7036 67.8234Z" fill="url(#paint11_linear_31_13129)"/>
<path style="mix-blend-mode:multiply" d="M36.7036 67.8234C36.7036 64.9883 38.6958 63.8587 41.1306 65.2763C43.5655 66.6938 45.5576 70.1269 45.5576 72.9398C45.5576 75.7527 43.5655 76.9045 41.1306 75.4869C38.6958 74.0694 36.7036 70.6363 36.7036 67.8234Z" fill="url(#paint12_radial_31_13129)"/>
<path d="M10.1416 83.1726C10.1416 80.3376 12.1338 79.208 14.5686 80.6255C17.0035 82.043 18.9956 85.4761 18.9956 88.289C18.9956 91.1241 17.0035 92.2537 14.5686 90.8362C12.1338 89.4186 10.1416 85.9855 10.1416 83.1726Z" fill="url(#paint13_linear_31_13129)"/>
<path style="mix-blend-mode:multiply" d="M10.1416 83.1726C10.1416 80.3376 12.1338 79.208 14.5686 80.6255C17.0035 82.043 18.9956 85.4761 18.9956 88.289C18.9956 91.1241 17.0035 92.2537 14.5686 90.8362C12.1338 89.4186 10.1416 85.9855 10.1416 83.1726Z" fill="url(#paint14_radial_31_13129)"/>
<path d="M10.1416 52.4742C10.1416 49.6391 12.1338 48.5095 14.5686 49.927C17.0035 51.3446 18.9956 54.7776 18.9956 57.5906C18.9956 60.4035 17.0035 61.5552 14.5686 60.1377C12.1338 58.7202 10.1416 55.2871 10.1416 52.4742Z" fill="url(#paint15_linear_31_13129)"/>
<path style="mix-blend-mode:multiply" d="M10.1416 52.4742C10.1416 49.6391 12.1338 48.5095 14.5686 49.927C17.0035 51.3446 18.9956 54.7776 18.9956 57.5906C18.9956 60.4035 17.0035 61.5552 14.5686 60.1377C12.1338 58.7202 10.1416 55.2871 10.1416 52.4742Z" fill="url(#paint16_radial_31_13129)"/>
<path d="M60.7646 26.1391C63.1995 27.5566 63.1995 29.8379 60.7646 31.2555C58.3298 32.673 54.3455 32.673 51.9106 31.2555C49.4758 29.8379 49.4758 27.5566 51.9106 26.1391C54.3455 24.7215 58.3298 24.7215 60.7646 26.1391Z" fill="url(#paint17_linear_31_13129)"/>
<path style="mix-blend-mode:multiply" d="M60.7646 26.1391C63.1995 27.5566 63.1995 29.8379 60.7646 31.2555C58.3298 32.673 54.3455 32.673 51.9106 31.2555C49.4758 29.8379 49.4758 27.5566 51.9106 26.1391C54.3455 24.7215 58.3298 24.7215 60.7646 26.1391Z" fill="url(#paint18_radial_31_13129)"/>
<defs>
<radialGradient id="paint0_radial_31_13129" cx="0" cy="0" r="1" gradientUnits="userSpaceOnUse" gradientTransform="translate(56.3376 61.4887) scale(61.1813 61.2196)">
<stop stop-color="#ECECEF"/>
<stop offset="0.37" stop-color="#E7E7EB"/>
<stop offset="0.75" stop-color="#DBDBDF"/>
<stop offset="0.85" stop-color="#D7D7DB"/>
<stop offset="0.93" stop-color="#D9D9DD"/>
<stop offset="0.97" stop-color="#E1E1E5"/>
<stop offset="1" stop-color="#ECECEF"/>
</radialGradient>
<linearGradient id="paint1_linear_31_13129" x1="60.831" y1="64.213" x2="108.791" y2="91.8732" gradientUnits="userSpaceOnUse">
<stop stop-color="#B2B4B3"/>
<stop offset="1" stop-color="#CBCBD0"/>
</linearGradient>
<linearGradient id="paint2_linear_31_13129" x1="3.8774" y1="36.5047" x2="51.867" y2="119.559" gradientUnits="userSpaceOnUse">
<stop stop-color="#CBCBD0"/>
<stop offset="1" stop-color="#ECECEF"/>
</linearGradient>
<linearGradient id="paint3_linear_31_13129" x1="56.3379" y1="1" x2="56.3379" y2="56.3945" gradientUnits="userSpaceOnUse">
<stop stop-color="#ECECEF"/>
<stop offset="0.44" stop-color="#F4F4F6"/>
<stop offset="1" stop-color="#F9F9FA"/>
</linearGradient>
<linearGradient id="paint4_linear_31_13129" x1="11.0934" y1="35.4637" x2="59.8058" y2="63.5664" gradientUnits="userSpaceOnUse">
<stop/>
<stop offset="0.1" stop-color="#292929"/>
<stop offset="0.22" stop-color="#575757"/>
<stop offset="0.34" stop-color="#7C7C7C"/>
<stop offset="0.45" stop-color="#999999"/>
<stop offset="0.57" stop-color="#AEAEAE"/>
<stop offset="0.69" stop-color="#BABABA"/>
<stop offset="0.8" stop-color="#BFBFBF"/>
<stop offset="0.85" stop-color="#808080"/>
<stop offset="0.9" stop-color="#494949"/>
<stop offset="0.94" stop-color="#212121"/>
<stop offset="0.98" stop-color="#080808"/>
<stop offset="1"/>
</linearGradient>
<linearGradient id="paint5_linear_31_13129" x1="68.3929" y1="75.798" x2="74.6519" y2="64.9638" gradientUnits="userSpaceOnUse">
<stop stop-color="#303030"/>
<stop offset="0.33" stop-color="#414141"/>
<stop offset="0.6" stop-color="#4A4A4A"/>
<stop offset="0.68" stop-color="#404040"/>
<stop offset="0.84" stop-color="#343434"/>
<stop offset="1" stop-color="#303030"/>
</linearGradient>
<radialGradient id="paint6_radial_31_13129" cx="0" cy="0" r="1" gradientUnits="userSpaceOnUse" gradientTransform="translate(29.8587 46.3895) rotate(-60.0155) scale(7.50731 4.35288)">
<stop offset="0.5" stop-color="#4A4A4A"/>
<stop offset="0.52" stop-color="#585858"/>
<stop offset="0.58" stop-color="#848484"/>
<stop offset="0.64" stop-color="#AAAAAA"/>
<stop offset="0.7" stop-color="#C9C9C9"/>
<stop offset="0.76" stop-color="#E0E0E0"/>
<stop offset="0.83" stop-color="#F1F1F1"/>
<stop offset="0.91" stop-color="#FBFBFB"/>
<stop offset="1" stop-color="white"/>
</radialGradient>
<linearGradient id="paint7_linear_31_13129" x1="94.9618" y1="91.1472" x2="101.221" y2="80.313" gradientUnits="userSpaceOnUse">
<stop stop-color="#303030"/>
<stop offset="0.33" stop-color="#414141"/>
<stop offset="0.6" stop-color="#4A4A4A"/>
<stop offset="0.68" stop-color="#404040"/>
<stop offset="0.84" stop-color="#343434"/>
<stop offset="1" stop-color="#303030"/>
</linearGradient>
<radialGradient id="paint8_radial_31_13129" cx="0" cy="0" r="1" gradientUnits="userSpaceOnUse" gradientTransform="translate(56.5871 61.8309) rotate(-60.0155) scale(7.50731 4.35288)">
<stop offset="0.5" stop-color="#4A4A4A"/>
<stop offset="0.52" stop-color="#585858"/>
<stop offset="0.58" stop-color="#848484"/>
<stop offset="0.64" stop-color="#AAAAAA"/>
<stop offset="0.7" stop-color="#C9C9C9"/>
<stop offset="0.76" stop-color="#E0E0E0"/>
<stop offset="0.83" stop-color="#F1F1F1"/>
<stop offset="0.91" stop-color="#FBFBFB"/>
<stop offset="1" stop-color="white"/>
</radialGradient>
<linearGradient id="paint9_linear_31_13129" x1="44.2546" y1="106.479" x2="37.9845" y2="95.6254" gradientUnits="userSpaceOnUse">
<stop stop-color="#303030"/>
<stop offset="0.11" stop-color="#414141"/>
<stop offset="0.2" stop-color="#4A4A4A"/>
<stop offset="0.37" stop-color="#404040"/>
<stop offset="0.69" stop-color="#343434"/>
<stop offset="1" stop-color="#303030"/>
</linearGradient>
<radialGradient id="paint10_radial_31_13129" cx="0" cy="0" r="1" gradientUnits="userSpaceOnUse" gradientTransform="translate(76.5038 80.7268) rotate(-119.984) scale(7.50731 4.35288)">
<stop offset="0.5" stop-color="#4A4A4A"/>
<stop offset="0.52" stop-color="#585858"/>
<stop offset="0.58" stop-color="#848484"/>
<stop offset="0.64" stop-color="#AAAAAA"/>
<stop offset="0.7" stop-color="#C9C9C9"/>
<stop offset="0.76" stop-color="#E0E0E0"/>
<stop offset="0.83" stop-color="#F1F1F1"/>
<stop offset="0.91" stop-color="#FBFBFB"/>
<stop offset="1" stop-color="white"/>
</radialGradient>
<linearGradient id="paint11_linear_31_13129" x1="44.2389" y1="75.7974" x2="37.9688" y2="64.9441" gradientUnits="userSpaceOnUse">
<stop stop-color="#303030"/>
<stop offset="0.11" stop-color="#414141"/>
<stop offset="0.2" stop-color="#4A4A4A"/>
<stop offset="0.37" stop-color="#404040"/>
<stop offset="0.69" stop-color="#343434"/>
<stop offset="1" stop-color="#303030"/>
</linearGradient>
<radialGradient id="paint12_radial_31_13129" cx="0" cy="0" r="1" gradientUnits="userSpaceOnUse" gradientTransform="translate(76.587 49.9883) rotate(-119.984) scale(1.10727 0.642017)">
<stop offset="0.5" stop-color="#4A4A4A"/>
<stop offset="0.52" stop-color="#585858"/>
<stop offset="0.58" stop-color="#848484"/>
<stop offset="0.64" stop-color="#AAAAAA"/>
<stop offset="0.7" stop-color="#C9C9C9"/>
<stop offset="0.76" stop-color="#E0E0E0"/>
<stop offset="0.83" stop-color="#F1F1F1"/>
<stop offset="0.91" stop-color="#FBFBFB"/>
<stop offset="1" stop-color="white"/>
</radialGradient>
<linearGradient id="paint13_linear_31_13129" x1="17.6892" y1="91.1356" x2="11.419" y2="80.2822" gradientUnits="userSpaceOnUse">
<stop stop-color="#303030"/>
<stop offset="0.11" stop-color="#414141"/>
<stop offset="0.2" stop-color="#4A4A4A"/>
<stop offset="0.37" stop-color="#404040"/>
<stop offset="0.69" stop-color="#343434"/>
<stop offset="1" stop-color="#303030"/>
</linearGradient>
<radialGradient id="paint14_radial_31_13129" cx="0" cy="0" r="1" gradientUnits="userSpaceOnUse" gradientTransform="translate(49.8586 65.4297) rotate(-119.984) scale(7.50731 4.35288)">
<stop offset="0.5" stop-color="#4A4A4A"/>
<stop offset="0.52" stop-color="#585858"/>
<stop offset="0.58" stop-color="#848484"/>
<stop offset="0.64" stop-color="#AAAAAA"/>
<stop offset="0.7" stop-color="#C9C9C9"/>
<stop offset="0.76" stop-color="#E0E0E0"/>
<stop offset="0.83" stop-color="#F1F1F1"/>
<stop offset="0.91" stop-color="#FBFBFB"/>
<stop offset="1" stop-color="white"/>
</radialGradient>
<linearGradient id="paint15_linear_31_13129" x1="17.6926" y1="60.4431" x2="11.4225" y2="49.5897" gradientUnits="userSpaceOnUse">
<stop stop-color="#303030"/>
<stop offset="0.11" stop-color="#414141"/>
<stop offset="0.2" stop-color="#4A4A4A"/>
<stop offset="0.37" stop-color="#404040"/>
<stop offset="0.69" stop-color="#343434"/>
<stop offset="1" stop-color="#303030"/>
</linearGradient>
<radialGradient id="paint16_radial_31_13129" cx="0" cy="0" r="1" gradientUnits="userSpaceOnUse" gradientTransform="translate(49.9418 34.6911) rotate(-119.984) scale(7.50731 4.35288)">
<stop offset="0.5" stop-color="#4A4A4A"/>
<stop offset="0.52" stop-color="#585858"/>
<stop offset="0.58" stop-color="#848484"/>
<stop offset="0.64" stop-color="#AAAAAA"/>
<stop offset="0.7" stop-color="#C9C9C9"/>
<stop offset="0.76" stop-color="#E0E0E0"/>
<stop offset="0.83" stop-color="#F1F1F1"/>
<stop offset="0.91" stop-color="#FBFBFB"/>
<stop offset="1" stop-color="white"/>
</radialGradient>
<linearGradient id="paint17_linear_31_13129" x1="50.0734" y1="28.6862" x2="62.5797" y2="28.6862" gradientUnits="userSpaceOnUse">
<stop stop-color="#303030"/>
<stop offset="0.1" stop-color="#383838"/>
<stop offset="0.26" stop-color="#515151"/>
<stop offset="0.46" stop-color="#787878"/>
<stop offset="0.5" stop-color="#828282"/>
<stop offset="0.54" stop-color="#787878"/>
<stop offset="0.74" stop-color="#515151"/>
<stop offset="0.9" stop-color="#383838"/>
<stop offset="1" stop-color="#303030"/>
</linearGradient>
<radialGradient id="paint18_radial_31_13129" cx="0" cy="0" r="1" gradientUnits="userSpaceOnUse" gradientTransform="translate(56.2491 77.1286) scale(7.50379 4.35492)">
<stop offset="0.5" stop-color="#4A4A4A"/>
<stop offset="0.52" stop-color="#585858"/>
<stop offset="0.58" stop-color="#848484"/>
<stop offset="0.64" stop-color="#AAAAAA"/>
<stop offset="0.7" stop-color="#C9C9C9"/>
<stop offset="0.76" stop-color="#E0E0E0"/>
<stop offset="0.83" stop-color="#F1F1F1"/>
<stop offset="0.91" stop-color="#FBFBFB"/>
<stop offset="1" stop-color="white"/>
</radialGradient>
</defs>
</svg>
