<svg width="112" height="122" viewBox="0 0 112 122" fill="none" xmlns="http://www.w3.org/2000/svg">
<path d="M111 39.8122C111 31.3092 105.236 25.0913 101.1 22.6964L65.9 2.39477C60.356 -0.791095 51.644 -0.791095 46.1 2.39477L10.9 22.6964C6.764 25.0913 1 31.3092 1 39.8122V80.4155C1 86.7652 5.334 94.3234 10.9 97.5532L46.1 117.833C51.072 120.689 60.84 120.755 65.9 117.833L101.1 97.5532C106.666 94.3234 111 86.7652 111 80.4155V39.8122Z" fill="url(#paint0_radial_31_12767)"/>
<path d="M110.692 81.5142V40.911C110.692 35.3082 106.754 33.0452 101.892 35.8356L66.6917 56.1372C61.8297 58.9495 57.8917 65.7607 57.8917 71.3634V111.967C57.8917 117.569 61.8297 119.832 66.6917 117.042L101.892 96.7405C106.754 93.9281 110.692 87.117 110.692 81.5142Z" fill="url(#paint1_linear_31_12767)"/>
<path d="M65.5917 58.3343L100.792 38.0327C105.654 35.2204 109.592 37.5054 109.592 43.1081V83.7114C109.592 85.7767 109.042 88.0178 108.118 90.149C109.702 87.4026 110.692 84.3046 110.692 81.5142V40.911C110.692 35.3082 106.754 33.0452 101.892 35.8356L66.6917 56.1372C63.6337 57.8949 60.9277 61.2565 59.3657 64.9038C60.9497 62.1354 63.1717 59.7185 65.5917 58.3343Z" fill="#B2B4B3"/>
<path d="M10.0858 96.7403L45.2858 117.042C50.1478 119.854 54.0858 117.569 54.0858 111.967V71.3633C54.0858 65.7606 50.1478 58.9494 45.2858 56.1371L10.0858 35.8354C5.22377 33.0231 1.28577 35.3081 1.28577 40.9108V81.5141C1.28577 87.1168 5.22377 93.928 10.0858 96.7403Z" fill="url(#paint2_linear_31_12767)"/>
<path d="M2.38577 83.7113V43.108C2.38577 37.5053 6.32377 35.2422 11.1858 38.0326L46.3858 58.3342C48.8278 59.7404 51.0278 62.1573 52.6118 64.9037C51.0278 61.2564 48.3438 57.8948 45.2858 56.1371L10.0858 35.8354C5.22377 33.0231 1.28577 35.3081 1.28577 40.9108V81.5141C1.28577 84.3045 2.27577 87.4025 3.85977 90.1489C2.93577 88.0177 2.38577 85.7766 2.38577 83.7113Z" fill="#CBCBD0"/>
<path d="M47.1996 2.10926L11.9996 22.3889C7.13765 25.2013 7.13765 29.7274 11.9996 32.5397L47.1996 52.8414C52.0616 55.6537 59.9376 55.6537 64.7996 52.8414L99.9997 32.5397C104.862 29.7274 104.862 25.2013 99.9997 22.3889L64.7996 2.10926C59.9376 -0.703087 52.0616 -0.703087 47.1996 2.10926Z" fill="url(#paint3_linear_31_12767)"/>
<path d="M65.5481 50.6442C60.2681 53.4566 51.7321 53.4566 46.4521 50.6442L10.8121 31.7048C11.1861 31.9905 11.5381 32.2761 12.0001 32.5398L47.2001 52.8414C52.0621 55.6537 59.9381 55.6537 64.8001 52.8414L100 32.5398C100.462 32.2761 100.814 31.9905 101.188 31.7048L65.5481 50.6442Z" fill="white"/>
<path style="mix-blend-mode:screen" d="M47.1999 52.8414L11.9999 32.5398L10.0859 35.8355L45.2859 56.1371C50.1479 58.9495 54.0859 65.7607 54.0859 71.3634L64.7999 52.8414C59.9379 55.6538 52.0619 55.6538 47.1999 52.8414Z" fill="url(#paint4_linear_31_12767)"/>
<path d="M75.4919 96.7404C75.4919 93.9281 73.5119 92.8075 71.0919 94.2137C68.6719 95.6199 66.6919 99.0255 66.6919 101.816C66.6919 104.606 68.6719 105.749 71.0919 104.343C73.5119 102.936 75.4919 99.5308 75.4919 96.7404Z" fill="url(#paint5_linear_31_12767)"/>
<path style="mix-blend-mode:multiply" d="M75.4919 96.7404C75.4919 93.9281 73.5119 92.8075 71.0919 94.2137C68.6719 95.6199 66.6919 99.0255 66.6919 101.816C66.6919 104.606 68.6719 105.749 71.0919 104.343C73.5119 102.936 75.4919 99.5308 75.4919 96.7404Z" fill="url(#paint6_radial_31_12767)"/>
<path d="M101.892 51.0617C101.892 48.2494 99.9117 47.1288 97.4917 48.535C95.0717 49.9412 93.0917 53.3467 93.0917 56.1371C93.0917 58.9275 95.0717 60.07 97.4917 58.6638C99.9117 57.2577 101.892 53.8521 101.892 51.0617Z" fill="url(#paint7_linear_31_12767)"/>
<path style="mix-blend-mode:multiply" d="M101.892 51.0617C101.892 48.2494 99.9117 47.1288 97.4917 48.535C95.0717 49.9412 93.0917 53.3467 93.0917 56.1371C93.0917 58.9275 95.0717 60.07 97.4917 58.6638C99.9117 57.2577 101.892 53.8521 101.892 51.0617Z" fill="url(#paint8_radial_31_12767)"/>
<path d="M36.4858 96.7404C36.4858 93.9281 38.4658 92.8075 40.8858 94.2137C43.3058 95.6199 45.2858 99.0255 45.2858 101.816C45.2858 104.606 43.3058 105.749 40.8858 104.343C38.4658 102.936 36.4858 99.5308 36.4858 96.7404Z" fill="url(#paint9_linear_31_12767)"/>
<path style="mix-blend-mode:multiply" d="M36.4858 96.7404C36.4858 93.9281 38.4658 92.8075 40.8858 94.2137C43.3058 95.6199 45.2858 99.0255 45.2858 101.816C45.2858 104.606 43.3058 105.749 40.8858 104.343C38.4658 102.936 36.4858 99.5308 36.4858 96.7404Z" fill="url(#paint10_radial_31_12767)"/>
<path d="M36.4858 66.288C36.4858 63.4757 38.4658 62.3551 40.8858 63.7613C43.3058 65.1675 45.2858 68.5731 45.2858 71.3634C45.2858 74.1538 43.3058 75.2963 40.8858 73.8902C38.4658 72.484 36.4858 69.0784 36.4858 66.288Z" fill="url(#paint11_linear_31_12767)"/>
<path style="mix-blend-mode:multiply" d="M36.4858 66.288C36.4858 63.4757 38.4658 62.3551 40.8858 63.7613C43.3058 65.1675 45.2858 68.5731 45.2858 71.3634C45.2858 74.1538 43.3058 75.2963 40.8858 73.8902C38.4658 72.484 36.4858 69.0784 36.4858 66.288Z" fill="url(#paint12_radial_31_12767)"/>
<path d="M10.0859 81.5141C10.0859 78.7018 12.0659 77.5812 14.4859 78.9874C16.9059 80.3936 18.8859 83.7991 18.8859 86.5895C18.8859 89.4019 16.9059 90.5224 14.4859 89.1162C12.0659 87.7101 10.0859 84.3045 10.0859 81.5141Z" fill="url(#paint13_linear_31_12767)"/>
<path style="mix-blend-mode:multiply" d="M10.0859 81.5141C10.0859 78.7018 12.0659 77.5812 14.4859 78.9874C16.9059 80.3936 18.8859 83.7991 18.8859 86.5895C18.8859 89.4019 16.9059 90.5224 14.4859 89.1162C12.0659 87.7101 10.0859 84.3045 10.0859 81.5141Z" fill="url(#paint14_radial_31_12767)"/>
<path d="M36.4858 81.5141C36.4858 78.7018 38.4658 77.5812 40.8858 78.9874C43.3058 80.3936 45.2858 83.7991 45.2858 86.5895C45.2858 89.3799 43.3058 90.5224 40.8858 89.1162C38.4658 87.7101 36.4858 84.3045 36.4858 81.5141Z" fill="url(#paint15_linear_31_12767)"/>
<path style="mix-blend-mode:multiply" d="M36.4858 81.5141C36.4858 78.7018 38.4658 77.5812 40.8858 78.9874C43.3058 80.3936 45.2858 83.7991 45.2858 86.5895C45.2858 89.3799 43.3058 90.5224 40.8858 89.1162C38.4658 87.7101 36.4858 84.3045 36.4858 81.5141Z" fill="url(#paint16_radial_31_12767)"/>
<path d="M10.0859 66.288C10.0859 63.4757 12.0659 62.3551 14.4859 63.7613C16.9059 65.1675 18.8859 68.5731 18.8859 71.3634C18.8859 74.1538 16.9059 75.2963 14.4859 73.8902C12.0659 72.484 10.0859 69.0784 10.0859 66.288Z" fill="url(#paint17_linear_31_12767)"/>
<path style="mix-blend-mode:multiply" d="M10.0859 66.288C10.0859 63.4757 12.0659 62.3551 14.4859 63.7613C16.9059 65.1675 18.8859 68.5731 18.8859 71.3634C18.8859 74.1538 16.9059 75.2963 14.4859 73.8902C12.0659 72.484 10.0859 69.0784 10.0859 66.288Z" fill="url(#paint18_radial_31_12767)"/>
<path d="M10.0859 51.0617C10.0859 48.2494 12.0659 47.1288 14.4859 48.535C16.9059 49.9412 18.8859 53.3467 18.8859 56.1371C18.8859 58.9275 16.9059 60.07 14.4859 58.6638C12.0659 57.2577 10.0859 53.8521 10.0859 51.0617Z" fill="url(#paint19_linear_31_12767)"/>
<path style="mix-blend-mode:multiply" d="M10.0859 51.0617C10.0859 48.2494 12.0659 47.1288 14.4859 48.535C16.9059 49.9412 18.8859 53.3467 18.8859 56.1371C18.8859 58.9275 16.9059 60.07 14.4859 58.6638C12.0659 57.2577 10.0859 53.8521 10.0859 51.0617Z" fill="url(#paint20_radial_31_12767)"/>
<path d="M33.9996 24.9377C36.4196 26.3439 36.4196 28.6069 33.9996 30.0131C31.5796 31.4193 27.6196 31.4193 25.1996 30.0131C22.7796 28.6069 22.7796 26.3439 25.1996 24.9377C27.6196 23.5315 31.5796 23.5315 33.9996 24.9377Z" fill="url(#paint21_linear_31_12767)"/>
<path style="mix-blend-mode:multiply" d="M33.9996 24.9377C36.4196 26.3439 36.4196 28.6069 33.9996 30.0131C31.5796 31.4193 27.6196 31.4193 25.1996 30.0131C22.7796 28.6069 22.7796 26.3439 25.1996 24.9377C27.6196 23.5315 31.5796 23.5315 33.9996 24.9377Z" fill="url(#paint22_radial_31_12767)"/>
<path d="M60.3995 40.1638C62.8195 41.5699 62.8195 43.833 60.3995 45.2392C57.9795 46.6453 54.0195 46.6453 51.5995 45.2392C49.1795 43.833 49.1795 41.5699 51.5995 40.1638C54.0195 38.7576 57.9795 38.7576 60.3995 40.1638Z" fill="url(#paint23_linear_31_12767)"/>
<path style="mix-blend-mode:multiply" d="M60.3995 40.1638C62.8195 41.5699 62.8195 43.833 60.3995 45.2392C57.9795 46.6453 54.0195 46.6453 51.5995 45.2392C49.1795 43.833 49.1795 41.5699 51.5995 40.1638C54.0195 38.7576 57.9795 38.7576 60.3995 40.1638Z" fill="url(#paint24_radial_31_12767)"/>
<path d="M60.3994 9.71137C62.8194 11.1175 62.8194 13.3806 60.3994 14.7868C57.9794 16.193 54.0194 16.193 51.5994 14.7868C49.1794 13.3806 49.1794 11.1175 51.5994 9.71137C54.0194 8.30519 57.9794 8.30519 60.3994 9.71137Z" fill="url(#paint25_linear_31_12767)"/>
<path style="mix-blend-mode:multiply" d="M60.3994 9.71137C62.8194 11.1175 62.8194 13.3806 60.3994 14.7868C57.9794 16.193 54.0194 16.193 51.5994 14.7868C49.1794 13.3806 49.1794 11.1175 51.5994 9.71137C54.0194 8.30519 57.9794 8.30519 60.3994 9.71137Z" fill="url(#paint26_radial_31_12767)"/>
<path d="M86.7994 24.9377C89.2194 26.3439 89.2194 28.6069 86.7994 30.0131C84.3794 31.4193 80.4194 31.4193 77.9994 30.0131C75.5794 28.6069 75.5794 26.3439 77.9994 24.9377C80.4194 23.5315 84.3794 23.5315 86.7994 24.9377Z" fill="url(#paint27_linear_31_12767)"/>
<path style="mix-blend-mode:multiply" d="M86.7994 24.9377C89.2194 26.3439 89.2194 28.6069 86.7994 30.0131C84.3794 31.4193 80.4194 31.4193 77.9994 30.0131C75.5794 28.6069 75.5794 26.3439 77.9994 24.9377C80.4194 23.5315 84.3794 23.5315 86.7994 24.9377Z" fill="url(#paint28_radial_31_12767)"/>
<defs>
<radialGradient id="paint0_radial_31_12767" cx="0" cy="0" r="1" gradientUnits="userSpaceOnUse" gradientTransform="translate(56 60.004) scale(60.808 60.7291)">
<stop stop-color="#ECECEF"/>
<stop offset="0.37" stop-color="#E7E7EB"/>
<stop offset="0.75" stop-color="#DBDBDF"/>
<stop offset="0.85" stop-color="#D7D7DB"/>
<stop offset="0.93" stop-color="#D9D9DD"/>
<stop offset="0.97" stop-color="#E1E1E5"/>
<stop offset="1" stop-color="#ECECEF"/>
</radialGradient>
<linearGradient id="paint1_linear_31_12767" x1="60.4657" y1="62.7067" x2="108.087" y2="90.2245" gradientUnits="userSpaceOnUse">
<stop stop-color="#B2B4B3"/>
<stop offset="1" stop-color="#CBCBD0"/>
</linearGradient>
<linearGradient id="paint2_linear_31_12767" x1="3.85977" y1="35.2202" x2="51.4191" y2="117.689" gradientUnits="userSpaceOnUse">
<stop stop-color="#CBCBD0"/>
<stop offset="1" stop-color="#ECECEF"/>
</linearGradient>
<linearGradient id="paint3_linear_31_12767" x1="55.9996" y1="0" x2="55.9996" y2="54.9506" gradientUnits="userSpaceOnUse">
<stop stop-color="#ECECEF"/>
<stop offset="0.44" stop-color="#F4F4F6"/>
<stop offset="1" stop-color="#F9F9FA"/>
</linearGradient>
<linearGradient id="paint4_linear_31_12767" x1="11.0319" y1="34.1877" x2="59.4005" y2="62.1458" gradientUnits="userSpaceOnUse">
<stop/>
<stop offset="0.1" stop-color="#292929"/>
<stop offset="0.22" stop-color="#575757"/>
<stop offset="0.34" stop-color="#7C7C7C"/>
<stop offset="0.45" stop-color="#999999"/>
<stop offset="0.57" stop-color="#AEAEAE"/>
<stop offset="0.69" stop-color="#BABABA"/>
<stop offset="0.8" stop-color="#BFBFBF"/>
<stop offset="0.85" stop-color="#808080"/>
<stop offset="0.9" stop-color="#494949"/>
<stop offset="0.94" stop-color="#212121"/>
<stop offset="0.98" stop-color="#080808"/>
<stop offset="1"/>
</linearGradient>
<linearGradient id="paint5_linear_31_12767" x1="67.9744" y1="104.654" x2="74.1883" y2="93.8769" gradientUnits="userSpaceOnUse">
<stop stop-color="#303030"/>
<stop offset="0.33" stop-color="#414141"/>
<stop offset="0.6" stop-color="#4A4A4A"/>
<stop offset="0.68" stop-color="#404040"/>
<stop offset="0.84" stop-color="#343434"/>
<stop offset="1" stop-color="#303030"/>
</linearGradient>
<radialGradient id="paint6_radial_31_12767" cx="0" cy="0" r="1" gradientUnits="userSpaceOnUse" gradientTransform="translate(31.1317 76.3206) rotate(-59.9678) scale(7.45075 4.32424)">
<stop offset="0.5" stop-color="#4A4A4A"/>
<stop offset="0.52" stop-color="#585858"/>
<stop offset="0.58" stop-color="#848484"/>
<stop offset="0.64" stop-color="#AAAAAA"/>
<stop offset="0.7" stop-color="#C9C9C9"/>
<stop offset="0.76" stop-color="#E0E0E0"/>
<stop offset="0.83" stop-color="#F1F1F1"/>
<stop offset="0.91" stop-color="#FBFBFB"/>
<stop offset="1" stop-color="white"/>
</radialGradient>
<linearGradient id="paint7_linear_31_12767" x1="94.3742" y1="58.9868" x2="100.588" y2="48.21" gradientUnits="userSpaceOnUse">
<stop stop-color="#303030"/>
<stop offset="0.33" stop-color="#414141"/>
<stop offset="0.6" stop-color="#4A4A4A"/>
<stop offset="0.68" stop-color="#404040"/>
<stop offset="0.84" stop-color="#343434"/>
<stop offset="1" stop-color="#303030"/>
</linearGradient>
<radialGradient id="paint8_radial_31_12767" cx="0" cy="0" r="1" gradientUnits="userSpaceOnUse" gradientTransform="translate(57.5315 30.6537) rotate(-59.9678) scale(7.45075 4.32424)">
<stop offset="0.5" stop-color="#4A4A4A"/>
<stop offset="0.52" stop-color="#585858"/>
<stop offset="0.58" stop-color="#848484"/>
<stop offset="0.64" stop-color="#AAAAAA"/>
<stop offset="0.7" stop-color="#C9C9C9"/>
<stop offset="0.76" stop-color="#E0E0E0"/>
<stop offset="0.83" stop-color="#F1F1F1"/>
<stop offset="0.91" stop-color="#FBFBFB"/>
<stop offset="1" stop-color="white"/>
</radialGradient>
<linearGradient id="paint9_linear_31_12767" x1="43.984" y1="104.652" x2="37.7701" y2="93.8754" gradientUnits="userSpaceOnUse">
<stop stop-color="#303030"/>
<stop offset="0.11" stop-color="#414141"/>
<stop offset="0.2" stop-color="#4A4A4A"/>
<stop offset="0.37" stop-color="#404040"/>
<stop offset="0.69" stop-color="#343434"/>
<stop offset="1" stop-color="#303030"/>
</linearGradient>
<radialGradient id="paint10_radial_31_12767" cx="0" cy="0" r="1" gradientUnits="userSpaceOnUse" gradientTransform="translate(78.1985 77.8598) rotate(-120.032) scale(7.45075 4.32424)">
<stop offset="0.5" stop-color="#4A4A4A"/>
<stop offset="0.52" stop-color="#585858"/>
<stop offset="0.58" stop-color="#848484"/>
<stop offset="0.64" stop-color="#AAAAAA"/>
<stop offset="0.7" stop-color="#C9C9C9"/>
<stop offset="0.76" stop-color="#E0E0E0"/>
<stop offset="0.83" stop-color="#F1F1F1"/>
<stop offset="0.91" stop-color="#FBFBFB"/>
<stop offset="1" stop-color="white"/>
</radialGradient>
<linearGradient id="paint11_linear_31_12767" x1="43.9874" y1="74.2056" x2="37.7735" y2="63.4289" gradientUnits="userSpaceOnUse">
<stop stop-color="#303030"/>
<stop offset="0.11" stop-color="#414141"/>
<stop offset="0.2" stop-color="#4A4A4A"/>
<stop offset="0.37" stop-color="#404040"/>
<stop offset="0.69" stop-color="#343434"/>
<stop offset="1" stop-color="#303030"/>
</linearGradient>
<radialGradient id="paint12_radial_31_12767" cx="0" cy="0" r="1" gradientUnits="userSpaceOnUse" gradientTransform="translate(78.2812 47.3676) rotate(-120.032) scale(7.45075 4.32424)">
<stop offset="0.5" stop-color="#4A4A4A"/>
<stop offset="0.52" stop-color="#585858"/>
<stop offset="0.58" stop-color="#848484"/>
<stop offset="0.64" stop-color="#AAAAAA"/>
<stop offset="0.7" stop-color="#C9C9C9"/>
<stop offset="0.76" stop-color="#E0E0E0"/>
<stop offset="0.83" stop-color="#F1F1F1"/>
<stop offset="0.91" stop-color="#FBFBFB"/>
<stop offset="1" stop-color="white"/>
</radialGradient>
<linearGradient id="paint13_linear_31_12767" x1="17.5997" y1="89.4207" x2="11.3858" y2="78.644" gradientUnits="userSpaceOnUse">
<stop stop-color="#303030"/>
<stop offset="0.11" stop-color="#414141"/>
<stop offset="0.2" stop-color="#4A4A4A"/>
<stop offset="0.37" stop-color="#404040"/>
<stop offset="0.69" stop-color="#343434"/>
<stop offset="1" stop-color="#303030"/>
</linearGradient>
<radialGradient id="paint14_radial_31_12767" cx="0" cy="0" r="1" gradientUnits="userSpaceOnUse" gradientTransform="translate(51.7159 62.6851) rotate(-120.032) scale(7.45075 4.32424)">
<stop offset="0.5" stop-color="#4A4A4A"/>
<stop offset="0.52" stop-color="#585858"/>
<stop offset="0.58" stop-color="#848484"/>
<stop offset="0.64" stop-color="#AAAAAA"/>
<stop offset="0.7" stop-color="#C9C9C9"/>
<stop offset="0.76" stop-color="#E0E0E0"/>
<stop offset="0.83" stop-color="#F1F1F1"/>
<stop offset="0.91" stop-color="#FBFBFB"/>
<stop offset="1" stop-color="white"/>
</radialGradient>
<linearGradient id="paint15_linear_31_12767" x1="43.9952" y1="89.4233" x2="37.7814" y2="78.6465" gradientUnits="userSpaceOnUse">
<stop stop-color="#303030"/>
<stop offset="0.11" stop-color="#414141"/>
<stop offset="0.2" stop-color="#4A4A4A"/>
<stop offset="0.37" stop-color="#404040"/>
<stop offset="0.69" stop-color="#343434"/>
<stop offset="1" stop-color="#303030"/>
</linearGradient>
<radialGradient id="paint16_radial_31_12767" cx="0" cy="0" r="1" gradientUnits="userSpaceOnUse" gradientTransform="translate(78.2398 62.6136) rotate(-120.032) scale(7.45075 4.32424)">
<stop offset="0.5" stop-color="#4A4A4A"/>
<stop offset="0.52" stop-color="#585858"/>
<stop offset="0.58" stop-color="#848484"/>
<stop offset="0.64" stop-color="#AAAAAA"/>
<stop offset="0.7" stop-color="#C9C9C9"/>
<stop offset="0.76" stop-color="#E0E0E0"/>
<stop offset="0.83" stop-color="#F1F1F1"/>
<stop offset="0.91" stop-color="#FBFBFB"/>
<stop offset="1" stop-color="white"/>
</radialGradient>
<linearGradient id="paint17_linear_31_12767" x1="17.5919" y1="74.2031" x2="11.378" y2="63.4264" gradientUnits="userSpaceOnUse">
<stop stop-color="#303030"/>
<stop offset="0.11" stop-color="#414141"/>
<stop offset="0.2" stop-color="#4A4A4A"/>
<stop offset="0.37" stop-color="#404040"/>
<stop offset="0.69" stop-color="#343434"/>
<stop offset="1" stop-color="#303030"/>
</linearGradient>
<radialGradient id="paint18_radial_31_12767" cx="0" cy="0" r="1" gradientUnits="userSpaceOnUse" gradientTransform="translate(51.7572 47.4392) rotate(-120.032) scale(7.45075 4.32424)">
<stop offset="0.5" stop-color="#4A4A4A"/>
<stop offset="0.52" stop-color="#585858"/>
<stop offset="0.58" stop-color="#848484"/>
<stop offset="0.64" stop-color="#AAAAAA"/>
<stop offset="0.7" stop-color="#C9C9C9"/>
<stop offset="0.76" stop-color="#E0E0E0"/>
<stop offset="0.83" stop-color="#F1F1F1"/>
<stop offset="0.91" stop-color="#FBFBFB"/>
<stop offset="1" stop-color="white"/>
</radialGradient>
<linearGradient id="paint19_linear_31_12767" x1="17.5841" y1="58.9852" x2="11.3702" y2="48.2085" gradientUnits="userSpaceOnUse">
<stop stop-color="#303030"/>
<stop offset="0.11" stop-color="#414141"/>
<stop offset="0.2" stop-color="#4A4A4A"/>
<stop offset="0.37" stop-color="#404040"/>
<stop offset="0.69" stop-color="#343434"/>
<stop offset="1" stop-color="#303030"/>
</linearGradient>
<radialGradient id="paint20_radial_31_12767" cx="0" cy="0" r="1" gradientUnits="userSpaceOnUse" gradientTransform="translate(51.7986 32.193) rotate(-120.032) scale(7.45075 4.32424)">
<stop offset="0.5" stop-color="#4A4A4A"/>
<stop offset="0.52" stop-color="#585858"/>
<stop offset="0.58" stop-color="#848484"/>
<stop offset="0.64" stop-color="#AAAAAA"/>
<stop offset="0.7" stop-color="#C9C9C9"/>
<stop offset="0.76" stop-color="#E0E0E0"/>
<stop offset="0.83" stop-color="#F1F1F1"/>
<stop offset="0.91" stop-color="#FBFBFB"/>
<stop offset="1" stop-color="white"/>
</radialGradient>
<linearGradient id="paint21_linear_31_12767" x1="23.3736" y1="27.4644" x2="35.8256" y2="27.4644" gradientUnits="userSpaceOnUse">
<stop stop-color="#303030"/>
<stop offset="0.1" stop-color="#383838"/>
<stop offset="0.26" stop-color="#515151"/>
<stop offset="0.46" stop-color="#787878"/>
<stop offset="0.5" stop-color="#828282"/>
<stop offset="0.54" stop-color="#787878"/>
<stop offset="0.74" stop-color="#515151"/>
<stop offset="0.9" stop-color="#383838"/>
<stop offset="1" stop-color="#303030"/>
</linearGradient>
<radialGradient id="paint22_radial_31_12767" cx="0" cy="0" r="1" gradientUnits="userSpaceOnUse" gradientTransform="translate(29.5116 74.6007) scale(7.458 4.32003)">
<stop offset="0.5" stop-color="#4A4A4A"/>
<stop offset="0.52" stop-color="#585858"/>
<stop offset="0.58" stop-color="#848484"/>
<stop offset="0.64" stop-color="#AAAAAA"/>
<stop offset="0.7" stop-color="#C9C9C9"/>
<stop offset="0.76" stop-color="#E0E0E0"/>
<stop offset="0.83" stop-color="#F1F1F1"/>
<stop offset="0.91" stop-color="#FBFBFB"/>
<stop offset="1" stop-color="white"/>
</radialGradient>
<linearGradient id="paint23_linear_31_12767" x1="49.7735" y1="42.6905" x2="62.2035" y2="42.6905" gradientUnits="userSpaceOnUse">
<stop stop-color="#303030"/>
<stop offset="0.1" stop-color="#383838"/>
<stop offset="0.26" stop-color="#515151"/>
<stop offset="0.46" stop-color="#787878"/>
<stop offset="0.5" stop-color="#828282"/>
<stop offset="0.54" stop-color="#787878"/>
<stop offset="0.74" stop-color="#515151"/>
<stop offset="0.9" stop-color="#383838"/>
<stop offset="1" stop-color="#303030"/>
</linearGradient>
<radialGradient id="paint24_radial_31_12767" cx="0" cy="0" r="1" gradientUnits="userSpaceOnUse" gradientTransform="translate(55.9115 89.9182) scale(7.458 4.32003)">
<stop offset="0.5" stop-color="#4A4A4A"/>
<stop offset="0.52" stop-color="#585858"/>
<stop offset="0.58" stop-color="#848484"/>
<stop offset="0.64" stop-color="#AAAAAA"/>
<stop offset="0.7" stop-color="#C9C9C9"/>
<stop offset="0.76" stop-color="#E0E0E0"/>
<stop offset="0.83" stop-color="#F1F1F1"/>
<stop offset="0.91" stop-color="#FBFBFB"/>
<stop offset="1" stop-color="white"/>
</radialGradient>
<linearGradient id="paint25_linear_31_12767" x1="49.7734" y1="12.2601" x2="62.2034" y2="12.2601" gradientUnits="userSpaceOnUse">
<stop stop-color="#303030"/>
<stop offset="0.1" stop-color="#383838"/>
<stop offset="0.26" stop-color="#515151"/>
<stop offset="0.46" stop-color="#787878"/>
<stop offset="0.5" stop-color="#828282"/>
<stop offset="0.54" stop-color="#787878"/>
<stop offset="0.74" stop-color="#515151"/>
<stop offset="0.9" stop-color="#383838"/>
<stop offset="1" stop-color="#303030"/>
</linearGradient>
<radialGradient id="paint26_radial_31_12767" cx="0" cy="0" r="1" gradientUnits="userSpaceOnUse" gradientTransform="translate(55.9114 59.2957) scale(7.458 4.32003)">
<stop offset="0.5" stop-color="#4A4A4A"/>
<stop offset="0.52" stop-color="#585858"/>
<stop offset="0.58" stop-color="#848484"/>
<stop offset="0.64" stop-color="#AAAAAA"/>
<stop offset="0.7" stop-color="#C9C9C9"/>
<stop offset="0.76" stop-color="#E0E0E0"/>
<stop offset="0.83" stop-color="#F1F1F1"/>
<stop offset="0.91" stop-color="#FBFBFB"/>
<stop offset="1" stop-color="white"/>
</radialGradient>
<linearGradient id="paint27_linear_31_12767" x1="76.1734" y1="7.32967e-05" x2="88.6034" y2="7.32967e-05" gradientUnits="userSpaceOnUse">
<stop stop-color="#303030"/>
<stop offset="0.1" stop-color="#383838"/>
<stop offset="0.26" stop-color="#515151"/>
<stop offset="0.46" stop-color="#787878"/>
<stop offset="0.5" stop-color="#828282"/>
<stop offset="0.54" stop-color="#787878"/>
<stop offset="0.74" stop-color="#515151"/>
<stop offset="0.9" stop-color="#383838"/>
<stop offset="1" stop-color="#303030"/>
</linearGradient>
<radialGradient id="paint28_radial_31_12767" cx="0" cy="0" r="1" gradientUnits="userSpaceOnUse" gradientTransform="translate(82.3114 74.6007) scale(7.458 4.32003)">
<stop offset="0.5" stop-color="#4A4A4A"/>
<stop offset="0.52" stop-color="#585858"/>
<stop offset="0.58" stop-color="#848484"/>
<stop offset="0.64" stop-color="#AAAAAA"/>
<stop offset="0.7" stop-color="#C9C9C9"/>
<stop offset="0.76" stop-color="#E0E0E0"/>
<stop offset="0.83" stop-color="#F1F1F1"/>
<stop offset="0.91" stop-color="#FBFBFB"/>
<stop offset="1" stop-color="white"/>
</radialGradient>
</defs>
</svg>
