<svg width="112" height="122" viewBox="0 0 112 122" fill="none" xmlns="http://www.w3.org/2000/svg">
<path d="M107.595 38.5219C107.595 30.5081 102.189 24.6479 98.3101 22.3908L65.2956 3.25707C60.0959 0.25448 51.9248 0.25448 46.725 3.25707L13.7106 22.3908C9.83138 24.6479 4.42526 30.5081 4.42526 38.5219V76.7894C4.42526 82.7739 8.49017 89.8973 13.7106 92.9413L46.725 112.054C51.3883 114.746 60.5498 114.808 65.2956 112.054L98.3101 92.9413C103.53 89.8973 107.595 82.7739 107.595 76.7894V38.5219Z" fill="url(#paint0_radial_31_12998)"/>
<path d="M107.307 77.8248V39.5574C107.307 34.2769 103.613 32.1441 99.0529 34.7739L66.0385 53.9077C61.4783 56.5582 57.7849 62.9775 57.7849 68.258V106.525C57.7849 111.806 61.4783 113.939 66.0385 111.309L99.0529 92.1751C103.613 89.5246 107.307 83.1052 107.307 77.8248Z" fill="url(#paint1_linear_31_12998)"/>
<path d="M65.0068 55.9784L98.0212 36.8447C102.581 34.1941 106.275 36.3477 106.275 41.6281V79.8956C106.275 81.8421 105.759 83.9543 104.892 85.9629C106.378 83.3744 107.307 80.4547 107.307 77.8248V39.5574C107.307 34.2769 103.613 32.1441 99.0529 34.7739L66.0385 53.9077C63.1703 55.5643 60.6323 58.7325 59.1673 62.17C60.653 59.5608 62.737 57.283 65.0068 55.9784Z" fill="#B2B4B3"/>
<path d="M12.9471 92.1752L45.9616 111.309C50.5217 113.959 54.2152 111.806 54.2152 106.525V68.258C54.2152 62.9776 50.5217 56.5583 45.9616 53.9077L12.9471 34.774C8.387 32.1234 4.69351 34.277 4.69351 39.5574V77.8249C4.69351 83.1053 8.387 89.5246 12.9471 92.1752Z" fill="url(#paint2_linear_31_12998)"/>
<path d="M5.72521 79.8956V41.6282C5.72521 36.3477 9.4187 34.2149 13.9788 36.8447L46.9933 55.9785C49.2836 57.3037 51.347 59.5816 52.8327 62.17C51.347 58.7326 48.8297 55.5643 45.9616 53.9077L12.9471 34.774C8.387 32.1234 4.69351 34.277 4.69351 39.5574V77.8249C4.69351 80.4547 5.62204 83.3745 7.10769 85.9629C6.24106 83.9543 5.72521 81.8421 5.72521 79.8956Z" fill="#CBCBD0"/>
<path d="M47.7567 2.98792L14.7423 22.1009C10.1822 24.7515 10.1822 29.0173 14.7423 31.6678L47.7567 50.8015C52.3169 53.4521 59.7038 53.4521 64.264 50.8015L97.2784 31.6678C101.839 29.0173 101.839 24.7515 97.2784 22.1009L64.264 2.98792C59.7038 0.33736 52.3169 0.33736 47.7567 2.98792Z" fill="url(#paint3_linear_31_12998)"/>
<path d="M64.9655 48.7307C60.0133 51.3813 52.0073 51.3813 47.0552 48.7307L13.6281 30.8809C13.9788 31.1501 14.309 31.4193 14.7423 31.6677L47.7567 50.8015C52.3169 53.452 59.7038 53.452 64.264 50.8015L97.2784 31.6677C97.7117 31.4193 98.0419 31.1501 98.3926 30.8809L64.9655 48.7307Z" fill="white"/>
<path style="mix-blend-mode:screen" d="M47.7567 50.8015L14.7423 31.6677L12.9471 34.7738L45.9616 53.9076C50.5217 56.5581 54.2152 62.9775 54.2152 68.2579L64.2639 50.8015C59.7038 53.452 52.3168 53.452 47.7567 50.8015Z" fill="url(#paint4_linear_31_12998)"/>
<path d="M74.2921 92.1752C74.2921 89.5246 72.435 88.4685 70.1653 89.7938C67.8955 91.1191 66.0385 94.3288 66.0385 96.9586C66.0385 99.5885 67.8955 100.665 70.1653 99.34C72.435 98.0147 74.2921 94.805 74.2921 92.1752Z" fill="url(#paint5_linear_31_12998)"/>
<path style="mix-blend-mode:multiply" d="M74.2921 92.1752C74.2921 89.5246 72.435 88.4685 70.1653 89.7938C67.8955 91.1191 66.0385 94.3288 66.0385 96.9586C66.0385 99.5885 67.8955 100.665 70.1653 99.34C72.435 98.0147 74.2921 94.805 74.2921 92.1752Z" fill="url(#paint6_radial_31_12998)"/>
<path d="M86.6725 70.6393C86.6725 67.9887 84.8154 66.9326 82.5457 68.2579C80.2759 69.5832 78.4189 72.7929 78.4189 75.4227C78.4189 78.0526 80.2759 79.1294 82.5457 77.8041C84.8154 76.4788 86.6725 73.2691 86.6725 70.6393Z" fill="url(#paint7_linear_31_12998)"/>
<path style="mix-blend-mode:multiply" d="M86.6725 70.6393C86.6725 67.9887 84.8154 66.9326 82.5457 68.2579C80.2759 69.5832 78.4189 72.7929 78.4189 75.4227C78.4189 78.0526 80.2759 79.1294 82.5457 77.8041C84.8154 76.4788 86.6725 73.2691 86.6725 70.6393Z" fill="url(#paint8_radial_31_12998)"/>
<path d="M99.0529 49.1242C99.0529 46.4736 97.1958 45.4175 94.9261 46.7428C92.6563 48.0681 90.7993 51.2777 90.7993 53.9076C90.7993 56.5374 92.6563 57.6142 94.9261 56.289C97.1958 54.9637 99.0529 51.754 99.0529 49.1242Z" fill="url(#paint9_linear_31_12998)"/>
<path style="mix-blend-mode:multiply" d="M99.0529 49.1242C99.0529 46.4736 97.1958 45.4175 94.9261 46.7428C92.6563 48.0681 90.7993 51.2777 90.7993 53.9076C90.7993 56.5374 92.6563 57.6142 94.9261 56.289C97.1958 54.9637 99.0529 51.754 99.0529 49.1242Z" fill="url(#paint10_radial_31_12998)"/>
<path d="M37.7079 92.1752C37.7079 89.5246 39.565 88.4685 41.8348 89.7938C44.1045 91.1191 45.9616 94.3288 45.9616 96.9586C45.9616 99.5885 44.1045 100.665 41.8348 99.34C39.565 98.0147 37.7079 94.805 37.7079 92.1752Z" fill="url(#paint11_linear_31_12998)"/>
<path style="mix-blend-mode:multiply" d="M37.7079 92.1752C37.7079 89.5246 39.565 88.4685 41.8348 89.7938C44.1045 91.1191 45.9616 94.3288 45.9616 96.9586C45.9616 99.5885 44.1045 100.665 41.8348 99.34C39.565 98.0147 37.7079 94.805 37.7079 92.1752Z" fill="url(#paint12_radial_31_12998)"/>
<path d="M37.7079 63.4745C37.7079 60.8239 39.565 59.7679 41.8348 61.0931C44.1045 62.4184 45.9616 65.6281 45.9616 68.2579C45.9616 70.8878 44.1045 71.9646 41.8348 70.6393C39.565 69.314 37.7079 66.1043 37.7079 63.4745Z" fill="url(#paint13_linear_31_12998)"/>
<path style="mix-blend-mode:multiply" d="M37.7079 63.4745C37.7079 60.8239 39.565 59.7679 41.8348 61.0931C44.1045 62.4184 45.9616 65.6281 45.9616 68.2579C45.9616 70.8878 44.1045 71.9646 41.8348 70.6393C39.565 69.314 37.7079 66.1043 37.7079 63.4745Z" fill="url(#paint14_radial_31_12998)"/>
<path d="M12.9471 77.8248C12.9471 75.1743 14.8042 74.1182 17.0739 75.4435C19.3437 76.7688 21.2007 79.9784 21.2007 82.6083C21.2007 85.2588 19.3437 86.3149 17.0739 84.9896C14.8042 83.6644 12.9471 80.4547 12.9471 77.8248Z" fill="url(#paint15_linear_31_12998)"/>
<path style="mix-blend-mode:multiply" d="M12.9471 77.8248C12.9471 75.1743 14.8042 74.1182 17.0739 75.4435C19.3437 76.7688 21.2007 79.9784 21.2007 82.6083C21.2007 85.2588 19.3437 86.3149 17.0739 84.9896C14.8042 83.6644 12.9471 80.4547 12.9471 77.8248Z" fill="url(#paint16_radial_31_12998)"/>
<path d="M25.3275 70.6393C25.3275 67.9887 27.1846 66.9326 29.4543 68.2579C31.7241 69.5832 33.5811 72.7929 33.5811 75.4227C33.5811 78.0526 31.7241 79.1294 29.4543 77.8041C27.1846 76.4788 25.3275 73.2691 25.3275 70.6393Z" fill="url(#paint17_linear_31_12998)"/>
<path style="mix-blend-mode:multiply" d="M25.3275 70.6393C25.3275 67.9887 27.1846 66.9326 29.4543 68.2579C31.7241 69.5832 33.5811 72.7929 33.5811 75.4227C33.5811 78.0526 31.7241 79.1294 29.4543 77.8041C27.1846 76.4788 25.3275 73.2691 25.3275 70.6393Z" fill="url(#paint18_radial_31_12998)"/>
<path d="M12.9471 49.1242C12.9471 46.4736 14.8042 45.4175 17.0739 46.7428C19.3437 48.0681 21.2007 51.2777 21.2007 53.9076C21.2007 56.5374 19.3437 57.6142 17.0739 56.289C14.8042 54.9637 12.9471 51.754 12.9471 49.1242Z" fill="url(#paint19_linear_31_12998)"/>
<path style="mix-blend-mode:multiply" d="M12.9471 49.1242C12.9471 46.4736 14.8042 45.4175 17.0739 46.7428C19.3437 48.0681 21.2007 51.2777 21.2007 53.9076C21.2007 56.5374 19.3437 57.6142 17.0739 56.289C14.8042 54.9637 12.9471 51.754 12.9471 49.1242Z" fill="url(#paint20_radial_31_12998)"/>
<path d="M35.3763 24.503C37.646 25.8283 37.646 27.9611 35.3763 29.2864C33.1066 30.6117 29.3924 30.6117 27.1227 29.2864C24.8529 27.9611 24.8529 25.8283 27.1227 24.503C29.3924 23.1777 33.1066 23.1777 35.3763 24.503Z" fill="url(#paint21_linear_31_12998)"/>
<path style="mix-blend-mode:multiply" d="M35.3763 24.503C37.646 25.8283 37.646 27.9611 35.3763 29.2864C33.1066 30.6117 29.3924 30.6117 27.1227 29.2864C24.8529 27.9611 24.8529 25.8283 27.1227 24.503C29.3924 23.1777 33.1066 23.1777 35.3763 24.503Z" fill="url(#paint22_radial_31_12998)"/>
<path d="M60.1371 38.8533C62.4069 40.1786 62.4069 42.3115 60.1371 43.6368C57.8674 44.962 54.1533 44.962 51.8835 43.6368C49.6138 42.3115 49.6138 40.1786 51.8835 38.8533C54.1533 37.5281 57.8674 37.5281 60.1371 38.8533Z" fill="url(#paint23_linear_31_12998)"/>
<path style="mix-blend-mode:multiply" d="M60.1371 38.8533C62.4069 40.1786 62.4069 42.3115 60.1371 43.6368C57.8674 44.962 54.1533 44.962 51.8835 43.6368C49.6138 42.3115 49.6138 40.1786 51.8835 38.8533C54.1533 37.5281 57.8674 37.5281 60.1371 38.8533Z" fill="url(#paint24_radial_31_12998)"/>
<path d="M60.1371 10.1527C62.4069 11.4779 62.4069 13.6108 60.1371 14.9361C57.8674 16.2614 54.1533 16.2614 51.8835 14.9361C49.6138 13.6108 49.6138 11.4779 51.8835 10.1527C54.1533 8.82737 57.8674 8.82737 60.1371 10.1527Z" fill="url(#paint25_linear_31_12998)"/>
<path style="mix-blend-mode:multiply" d="M60.1371 10.1527C62.4069 11.4779 62.4069 13.6108 60.1371 14.9361C57.8674 16.2614 54.1533 16.2614 51.8835 14.9361C49.6138 13.6108 49.6138 11.4779 51.8835 10.1527C54.1533 8.82737 57.8674 8.82737 60.1371 10.1527Z" fill="url(#paint26_radial_31_12998)"/>
<path d="M47.7567 31.6678C50.0264 32.9931 50.0264 35.1259 47.7567 36.4512C45.487 37.7765 41.7728 37.7765 39.5031 36.4512C37.2333 35.1259 37.2333 32.9931 39.5031 31.6678C41.7728 30.3425 45.487 30.3425 47.7567 31.6678Z" fill="url(#paint27_linear_31_12998)"/>
<path style="mix-blend-mode:multiply" d="M47.7567 31.6678C50.0264 32.9931 50.0264 35.1259 47.7567 36.4512C45.487 37.7765 41.7728 37.7765 39.5031 36.4512C37.2333 35.1259 37.2333 32.9931 39.5031 31.6678C41.7728 30.3425 45.487 30.3425 47.7567 31.6678Z" fill="url(#paint28_radial_31_12998)"/>
<path d="M72.5175 17.3174C74.7873 18.6427 74.7873 20.7756 72.5175 22.1009C70.2478 23.4262 66.5337 23.4262 64.2639 22.1009C61.9942 20.7756 61.9942 18.6427 64.2639 17.3174C66.5337 15.9922 70.2478 15.9922 72.5175 17.3174Z" fill="url(#paint29_linear_31_12998)"/>
<path style="mix-blend-mode:multiply" d="M72.5175 17.3174C74.7873 18.6427 74.7873 20.7756 72.5175 22.1009C70.2478 23.4262 66.5337 23.4262 64.2639 22.1009C61.9942 20.7756 61.9942 18.6427 64.2639 17.3174C66.5337 15.9922 70.2478 15.9922 72.5175 17.3174Z" fill="url(#paint30_radial_31_12998)"/>
<path d="M84.898 24.503C87.1677 25.8283 87.1677 27.9611 84.898 29.2864C82.6282 30.6117 78.9141 30.6117 76.6444 29.2864C74.3746 27.9611 74.3746 25.8283 76.6444 24.503C78.9141 23.1777 82.6282 23.1777 84.898 24.503Z" fill="url(#paint31_linear_31_12998)"/>
<path style="mix-blend-mode:multiply" d="M84.898 24.503C87.1677 25.8283 87.1677 27.9611 84.898 29.2864C82.6282 30.6117 78.9141 30.6117 76.6444 29.2864C74.3746 27.9611 74.3746 25.8283 76.6444 24.503C78.9141 23.1777 82.6282 23.1777 84.898 24.503Z" fill="url(#paint32_radial_31_12998)"/>
<defs>
<radialGradient id="paint0_radial_31_12998" cx="0" cy="0" r="1" gradientUnits="userSpaceOnUse" gradientTransform="translate(56.0103 57.5521) scale(57.0325 57.2355)">
<stop stop-color="#ECECEF"/>
<stop offset="0.37" stop-color="#E7E7EB"/>
<stop offset="0.75" stop-color="#DBDBDF"/>
<stop offset="0.85" stop-color="#D7D7DB"/>
<stop offset="0.93" stop-color="#D9D9DD"/>
<stop offset="0.97" stop-color="#E1E1E5"/>
<stop offset="1" stop-color="#ECECEF"/>
</radialGradient>
<linearGradient id="paint1_linear_31_12998" x1="60.199" y1="60.0992" x2="104.972" y2="85.8458" gradientUnits="userSpaceOnUse">
<stop stop-color="#B2B4B3"/>
<stop offset="1" stop-color="#CBCBD0"/>
</linearGradient>
<linearGradient id="paint2_linear_31_12998" x1="7.10769" y1="34.1942" x2="52.0397" y2="111.73" gradientUnits="userSpaceOnUse">
<stop stop-color="#CBCBD0"/>
<stop offset="1" stop-color="#ECECEF"/>
</linearGradient>
<linearGradient id="paint3_linear_31_12998" x1="56.0103" y1="1" x2="56.0103" y2="52.7895" gradientUnits="userSpaceOnUse">
<stop stop-color="#ECECEF"/>
<stop offset="0.44" stop-color="#F4F4F6"/>
<stop offset="1" stop-color="#F9F9FA"/>
</linearGradient>
<linearGradient id="paint4_linear_31_12998" x1="13.8344" y1="33.2208" x2="59.3098" y2="59.3793" gradientUnits="userSpaceOnUse">
<stop/>
<stop offset="0.1" stop-color="#292929"/>
<stop offset="0.22" stop-color="#575757"/>
<stop offset="0.34" stop-color="#7C7C7C"/>
<stop offset="0.45" stop-color="#999999"/>
<stop offset="0.57" stop-color="#AEAEAE"/>
<stop offset="0.69" stop-color="#BABABA"/>
<stop offset="0.8" stop-color="#BFBFBF"/>
<stop offset="0.85" stop-color="#808080"/>
<stop offset="0.9" stop-color="#494949"/>
<stop offset="0.94" stop-color="#212121"/>
<stop offset="0.98" stop-color="#080808"/>
<stop offset="1"/>
</linearGradient>
<linearGradient id="paint5_linear_31_12998" x1="67.2556" y1="99.6435" x2="73.1262" y2="89.5114" gradientUnits="userSpaceOnUse">
<stop stop-color="#303030"/>
<stop offset="0.33" stop-color="#414141"/>
<stop offset="0.6" stop-color="#4A4A4A"/>
<stop offset="0.68" stop-color="#404040"/>
<stop offset="0.84" stop-color="#343434"/>
<stop offset="1" stop-color="#303030"/>
</linearGradient>
<radialGradient id="paint6_radial_31_12998" cx="0" cy="0" r="1" gradientUnits="userSpaceOnUse" gradientTransform="translate(34.1572 73.7844) rotate(-60.0881) scale(7.01363 4.06066)">
<stop offset="0.5" stop-color="#4A4A4A"/>
<stop offset="0.52" stop-color="#585858"/>
<stop offset="0.58" stop-color="#848484"/>
<stop offset="0.64" stop-color="#AAAAAA"/>
<stop offset="0.7" stop-color="#C9C9C9"/>
<stop offset="0.76" stop-color="#E0E0E0"/>
<stop offset="0.83" stop-color="#F1F1F1"/>
<stop offset="0.91" stop-color="#FBFBFB"/>
<stop offset="1" stop-color="white"/>
</radialGradient>
<linearGradient id="paint7_linear_31_12998" x1="79.636" y1="78.1235" x2="85.5066" y2="67.9914" gradientUnits="userSpaceOnUse">
<stop stop-color="#303030"/>
<stop offset="0.33" stop-color="#414141"/>
<stop offset="0.6" stop-color="#4A4A4A"/>
<stop offset="0.68" stop-color="#404040"/>
<stop offset="0.84" stop-color="#343434"/>
<stop offset="1" stop-color="#303030"/>
</linearGradient>
<radialGradient id="paint8_radial_31_12998" cx="0" cy="0" r="1" gradientUnits="userSpaceOnUse" gradientTransform="translate(46.5376 52.2644) rotate(-60.0881) scale(7.01363 4.06066)">
<stop offset="0.5" stop-color="#4A4A4A"/>
<stop offset="0.52" stop-color="#585858"/>
<stop offset="0.58" stop-color="#848484"/>
<stop offset="0.64" stop-color="#AAAAAA"/>
<stop offset="0.7" stop-color="#C9C9C9"/>
<stop offset="0.76" stop-color="#E0E0E0"/>
<stop offset="0.83" stop-color="#F1F1F1"/>
<stop offset="0.91" stop-color="#FBFBFB"/>
<stop offset="1" stop-color="white"/>
</radialGradient>
<linearGradient id="paint9_linear_31_12998" x1="92.0164" y1="56.6036" x2="97.887" y2="46.4715" gradientUnits="userSpaceOnUse">
<stop stop-color="#303030"/>
<stop offset="0.33" stop-color="#414141"/>
<stop offset="0.6" stop-color="#4A4A4A"/>
<stop offset="0.68" stop-color="#404040"/>
<stop offset="0.84" stop-color="#343434"/>
<stop offset="1" stop-color="#303030"/>
</linearGradient>
<radialGradient id="paint10_radial_31_12998" cx="0" cy="0" r="1" gradientUnits="userSpaceOnUse" gradientTransform="translate(58.918 30.7445) rotate(-60.0881) scale(7.01363 4.06066)">
<stop offset="0.5" stop-color="#4A4A4A"/>
<stop offset="0.52" stop-color="#585858"/>
<stop offset="0.58" stop-color="#848484"/>
<stop offset="0.64" stop-color="#AAAAAA"/>
<stop offset="0.7" stop-color="#C9C9C9"/>
<stop offset="0.76" stop-color="#E0E0E0"/>
<stop offset="0.83" stop-color="#F1F1F1"/>
<stop offset="0.91" stop-color="#FBFBFB"/>
<stop offset="1" stop-color="white"/>
</radialGradient>
<linearGradient id="paint11_linear_31_12998" x1="44.7511" y1="99.6277" x2="38.8909" y2="89.5134" gradientUnits="userSpaceOnUse">
<stop stop-color="#303030"/>
<stop offset="0.11" stop-color="#414141"/>
<stop offset="0.2" stop-color="#4A4A4A"/>
<stop offset="0.37" stop-color="#404040"/>
<stop offset="0.69" stop-color="#343434"/>
<stop offset="1" stop-color="#303030"/>
</linearGradient>
<radialGradient id="paint12_radial_31_12998" cx="0" cy="0" r="1" gradientUnits="userSpaceOnUse" gradientTransform="translate(77.5618 73.9592) rotate(-119.912) scale(7.01363 4.06066)">
<stop offset="0.5" stop-color="#4A4A4A"/>
<stop offset="0.52" stop-color="#585858"/>
<stop offset="0.58" stop-color="#848484"/>
<stop offset="0.64" stop-color="#AAAAAA"/>
<stop offset="0.7" stop-color="#C9C9C9"/>
<stop offset="0.76" stop-color="#E0E0E0"/>
<stop offset="0.83" stop-color="#F1F1F1"/>
<stop offset="0.91" stop-color="#FBFBFB"/>
<stop offset="1" stop-color="white"/>
</radialGradient>
<linearGradient id="paint13_linear_31_12998" x1="44.7365" y1="70.9429" x2="38.8762" y2="60.8287" gradientUnits="userSpaceOnUse">
<stop stop-color="#303030"/>
<stop offset="0.11" stop-color="#414141"/>
<stop offset="0.2" stop-color="#4A4A4A"/>
<stop offset="0.37" stop-color="#404040"/>
<stop offset="0.69" stop-color="#343434"/>
<stop offset="1" stop-color="#303030"/>
</linearGradient>
<radialGradient id="paint14_radial_31_12998" cx="0" cy="0" r="1" gradientUnits="userSpaceOnUse" gradientTransform="translate(77.6289 45.227) rotate(-119.912) scale(7.01363 4.06066)">
<stop offset="0.5" stop-color="#4A4A4A"/>
<stop offset="0.52" stop-color="#585858"/>
<stop offset="0.58" stop-color="#848484"/>
<stop offset="0.64" stop-color="#AAAAAA"/>
<stop offset="0.7" stop-color="#C9C9C9"/>
<stop offset="0.76" stop-color="#E0E0E0"/>
<stop offset="0.83" stop-color="#F1F1F1"/>
<stop offset="0.91" stop-color="#FBFBFB"/>
<stop offset="1" stop-color="white"/>
</radialGradient>
<linearGradient id="paint15_linear_31_12998" x1="19.9871" y1="85.2829" x2="14.1268" y2="75.1687" gradientUnits="userSpaceOnUse">
<stop stop-color="#303030"/>
<stop offset="0.11" stop-color="#414141"/>
<stop offset="0.2" stop-color="#4A4A4A"/>
<stop offset="0.37" stop-color="#404040"/>
<stop offset="0.69" stop-color="#343434"/>
<stop offset="1" stop-color="#303030"/>
</linearGradient>
<radialGradient id="paint16_radial_31_12998" cx="0" cy="0" r="1" gradientUnits="userSpaceOnUse" gradientTransform="translate(52.7234 59.6575) rotate(-119.912) scale(7.01363 4.06066)">
<stop offset="0.5" stop-color="#4A4A4A"/>
<stop offset="0.52" stop-color="#585858"/>
<stop offset="0.58" stop-color="#848484"/>
<stop offset="0.64" stop-color="#AAAAAA"/>
<stop offset="0.7" stop-color="#C9C9C9"/>
<stop offset="0.76" stop-color="#E0E0E0"/>
<stop offset="0.83" stop-color="#F1F1F1"/>
<stop offset="0.91" stop-color="#FBFBFB"/>
<stop offset="1" stop-color="white"/>
</radialGradient>
<linearGradient id="paint17_linear_31_12998" x1="32.3707" y1="78.1077" x2="26.5105" y2="67.9935" gradientUnits="userSpaceOnUse">
<stop stop-color="#303030"/>
<stop offset="0.11" stop-color="#414141"/>
<stop offset="0.2" stop-color="#4A4A4A"/>
<stop offset="0.37" stop-color="#404040"/>
<stop offset="0.69" stop-color="#343434"/>
<stop offset="1" stop-color="#303030"/>
</linearGradient>
<radialGradient id="paint18_radial_31_12998" cx="0" cy="0" r="1" gradientUnits="userSpaceOnUse" gradientTransform="translate(65.1813 52.4392) rotate(-119.912) scale(7.01363 4.06066)">
<stop offset="0.5" stop-color="#4A4A4A"/>
<stop offset="0.52" stop-color="#585858"/>
<stop offset="0.58" stop-color="#848484"/>
<stop offset="0.64" stop-color="#AAAAAA"/>
<stop offset="0.7" stop-color="#C9C9C9"/>
<stop offset="0.76" stop-color="#E0E0E0"/>
<stop offset="0.83" stop-color="#F1F1F1"/>
<stop offset="0.91" stop-color="#FBFBFB"/>
<stop offset="1" stop-color="white"/>
</radialGradient>
<linearGradient id="paint19_linear_31_12998" x1="19.9903" y1="56.5878" x2="14.1301" y2="46.4736" gradientUnits="userSpaceOnUse">
<stop stop-color="#303030"/>
<stop offset="0.11" stop-color="#414141"/>
<stop offset="0.2" stop-color="#4A4A4A"/>
<stop offset="0.37" stop-color="#404040"/>
<stop offset="0.69" stop-color="#343434"/>
<stop offset="1" stop-color="#303030"/>
</linearGradient>
<radialGradient id="paint20_radial_31_12998" cx="0" cy="0" r="1" gradientUnits="userSpaceOnUse" gradientTransform="translate(52.8009 30.9193) rotate(-119.912) scale(7.01363 4.06066)">
<stop offset="0.5" stop-color="#4A4A4A"/>
<stop offset="0.52" stop-color="#585858"/>
<stop offset="0.58" stop-color="#848484"/>
<stop offset="0.64" stop-color="#AAAAAA"/>
<stop offset="0.7" stop-color="#C9C9C9"/>
<stop offset="0.76" stop-color="#E0E0E0"/>
<stop offset="0.83" stop-color="#F1F1F1"/>
<stop offset="0.91" stop-color="#FBFBFB"/>
<stop offset="1" stop-color="white"/>
</radialGradient>
<linearGradient id="paint21_linear_31_12998" x1="25.4101" y1="26.8844" x2="37.0889" y2="26.8844" gradientUnits="userSpaceOnUse">
<stop stop-color="#303030"/>
<stop offset="0.1" stop-color="#383838"/>
<stop offset="0.26" stop-color="#515151"/>
<stop offset="0.46" stop-color="#787878"/>
<stop offset="0.5" stop-color="#828282"/>
<stop offset="0.54" stop-color="#787878"/>
<stop offset="0.74" stop-color="#515151"/>
<stop offset="0.9" stop-color="#383838"/>
<stop offset="1" stop-color="#303030"/>
</linearGradient>
<radialGradient id="paint22_radial_31_12998" cx="0" cy="0" r="1" gradientUnits="userSpaceOnUse" gradientTransform="translate(31.167 72.1742) scale(6.99494 4.07151)">
<stop offset="0.5" stop-color="#4A4A4A"/>
<stop offset="0.52" stop-color="#585858"/>
<stop offset="0.58" stop-color="#848484"/>
<stop offset="0.64" stop-color="#AAAAAA"/>
<stop offset="0.7" stop-color="#C9C9C9"/>
<stop offset="0.76" stop-color="#E0E0E0"/>
<stop offset="0.83" stop-color="#F1F1F1"/>
<stop offset="0.91" stop-color="#FBFBFB"/>
<stop offset="1" stop-color="white"/>
</radialGradient>
<linearGradient id="paint23_linear_31_12998" x1="50.1709" y1="41.2347" x2="61.8291" y2="41.2347" gradientUnits="userSpaceOnUse">
<stop stop-color="#303030"/>
<stop offset="0.1" stop-color="#383838"/>
<stop offset="0.26" stop-color="#515151"/>
<stop offset="0.46" stop-color="#787878"/>
<stop offset="0.5" stop-color="#828282"/>
<stop offset="0.54" stop-color="#787878"/>
<stop offset="0.74" stop-color="#515151"/>
<stop offset="0.9" stop-color="#383838"/>
<stop offset="1" stop-color="#303030"/>
</linearGradient>
<radialGradient id="paint24_radial_31_12998" cx="0" cy="0" r="1" gradientUnits="userSpaceOnUse" gradientTransform="translate(55.9278 86.5986) scale(6.99494 4.07151)">
<stop offset="0.5" stop-color="#4A4A4A"/>
<stop offset="0.52" stop-color="#585858"/>
<stop offset="0.58" stop-color="#848484"/>
<stop offset="0.64" stop-color="#AAAAAA"/>
<stop offset="0.7" stop-color="#C9C9C9"/>
<stop offset="0.76" stop-color="#E0E0E0"/>
<stop offset="0.83" stop-color="#F1F1F1"/>
<stop offset="0.91" stop-color="#FBFBFB"/>
<stop offset="1" stop-color="white"/>
</radialGradient>
<linearGradient id="paint25_linear_31_12998" x1="50.1709" y1="12.5547" x2="61.8291" y2="12.5547" gradientUnits="userSpaceOnUse">
<stop stop-color="#303030"/>
<stop offset="0.1" stop-color="#383838"/>
<stop offset="0.26" stop-color="#515151"/>
<stop offset="0.46" stop-color="#787878"/>
<stop offset="0.5" stop-color="#828282"/>
<stop offset="0.54" stop-color="#787878"/>
<stop offset="0.74" stop-color="#515151"/>
<stop offset="0.9" stop-color="#383838"/>
<stop offset="1" stop-color="#303030"/>
</linearGradient>
<radialGradient id="paint26_radial_31_12998" cx="0" cy="0" r="1" gradientUnits="userSpaceOnUse" gradientTransform="translate(55.9278 57.7377) scale(6.99494 4.07151)">
<stop offset="0.5" stop-color="#4A4A4A"/>
<stop offset="0.52" stop-color="#585858"/>
<stop offset="0.58" stop-color="#848484"/>
<stop offset="0.64" stop-color="#AAAAAA"/>
<stop offset="0.7" stop-color="#C9C9C9"/>
<stop offset="0.76" stop-color="#E0E0E0"/>
<stop offset="0.83" stop-color="#F1F1F1"/>
<stop offset="0.91" stop-color="#FBFBFB"/>
<stop offset="1" stop-color="white"/>
</radialGradient>
<linearGradient id="paint27_linear_31_12998" x1="37.7905" y1="34.0699" x2="49.4487" y2="34.0699" gradientUnits="userSpaceOnUse">
<stop stop-color="#303030"/>
<stop offset="0.1" stop-color="#383838"/>
<stop offset="0.26" stop-color="#515151"/>
<stop offset="0.46" stop-color="#787878"/>
<stop offset="0.5" stop-color="#828282"/>
<stop offset="0.54" stop-color="#787878"/>
<stop offset="0.74" stop-color="#515151"/>
<stop offset="0.9" stop-color="#383838"/>
<stop offset="1" stop-color="#303030"/>
</linearGradient>
<radialGradient id="paint28_radial_31_12998" cx="0" cy="0" r="1" gradientUnits="userSpaceOnUse" gradientTransform="translate(43.5474 79.3924) scale(6.99494 4.07151)">
<stop offset="0.5" stop-color="#4A4A4A"/>
<stop offset="0.52" stop-color="#585858"/>
<stop offset="0.58" stop-color="#848484"/>
<stop offset="0.64" stop-color="#AAAAAA"/>
<stop offset="0.7" stop-color="#C9C9C9"/>
<stop offset="0.76" stop-color="#E0E0E0"/>
<stop offset="0.83" stop-color="#F1F1F1"/>
<stop offset="0.91" stop-color="#FBFBFB"/>
<stop offset="1" stop-color="white"/>
</radialGradient>
<linearGradient id="paint29_linear_31_12998" x1="62.5513" y1="19.7195" x2="74.2095" y2="19.7195" gradientUnits="userSpaceOnUse">
<stop stop-color="#303030"/>
<stop offset="0.1" stop-color="#383838"/>
<stop offset="0.26" stop-color="#515151"/>
<stop offset="0.46" stop-color="#787878"/>
<stop offset="0.5" stop-color="#828282"/>
<stop offset="0.54" stop-color="#787878"/>
<stop offset="0.74" stop-color="#515151"/>
<stop offset="0.9" stop-color="#383838"/>
<stop offset="1" stop-color="#303030"/>
</linearGradient>
<radialGradient id="paint30_radial_31_12998" cx="0" cy="0" r="1" gradientUnits="userSpaceOnUse" gradientTransform="translate(68.3082 64.9559) scale(6.99494 4.07151)">
<stop offset="0.5" stop-color="#4A4A4A"/>
<stop offset="0.52" stop-color="#585858"/>
<stop offset="0.58" stop-color="#848484"/>
<stop offset="0.64" stop-color="#AAAAAA"/>
<stop offset="0.7" stop-color="#C9C9C9"/>
<stop offset="0.76" stop-color="#E0E0E0"/>
<stop offset="0.83" stop-color="#F1F1F1"/>
<stop offset="0.91" stop-color="#FBFBFB"/>
<stop offset="1" stop-color="white"/>
</radialGradient>
<linearGradient id="paint31_linear_31_12998" x1="74.9317" y1="-143.953" x2="86.59" y2="-143.953" gradientUnits="userSpaceOnUse">
<stop stop-color="#303030"/>
<stop offset="0.1" stop-color="#383838"/>
<stop offset="0.26" stop-color="#515151"/>
<stop offset="0.46" stop-color="#787878"/>
<stop offset="0.5" stop-color="#828282"/>
<stop offset="0.54" stop-color="#787878"/>
<stop offset="0.74" stop-color="#515151"/>
<stop offset="0.9" stop-color="#383838"/>
<stop offset="1" stop-color="#303030"/>
</linearGradient>
<radialGradient id="paint32_radial_31_12998" cx="0" cy="0" r="1" gradientUnits="userSpaceOnUse" gradientTransform="translate(80.6886 72.1742) scale(6.99494 4.07151)">
<stop offset="0.5" stop-color="#4A4A4A"/>
<stop offset="0.52" stop-color="#585858"/>
<stop offset="0.58" stop-color="#848484"/>
<stop offset="0.64" stop-color="#AAAAAA"/>
<stop offset="0.7" stop-color="#C9C9C9"/>
<stop offset="0.76" stop-color="#E0E0E0"/>
<stop offset="0.83" stop-color="#F1F1F1"/>
<stop offset="0.91" stop-color="#FBFBFB"/>
<stop offset="1" stop-color="white"/>
</radialGradient>
</defs>
</svg>
