<svg width="61" height="62" viewBox="0 0 61 62" fill="none" xmlns="http://www.w3.org/2000/svg">
<g clip-path="url(#clip0_19_1389)">
<path d="M60.5 33.212C60.5 49.1134 47.0709 62 30.5 62C13.9291 62 0.5 49.1064 0.5 33.212V28.788H60.4927V33.212H60.5Z" fill="url(#paint0_linear_19_1389)"/>
<path d="M30.5 58.2069C46.9613 58.2069 60.3173 45.4816 60.4927 29.7275V29.0544C60.4927 28.9632 60.4927 28.8791 60.4854 28.788H0.514613C0.514613 28.9983 0.5 29.2086 0.5 29.419C0.5 45.3204 13.9291 58.2069 30.5 58.2069Z" fill="#FF4545"/>
<path d="M1.54468 40.7421C2.92558 45.6289 5.59972 50.0039 9.20907 53.4884V36.332H1.54468V40.7421Z" fill="url(#paint1_linear_19_1389)"/>
<path d="M59.4552 40.7421C58.0743 45.6289 55.4001 50.0039 51.7908 53.4884V36.332H59.4552V40.7421Z" fill="url(#paint2_linear_19_1389)"/>
<path d="M1.54468 36.956C2.92558 41.8428 5.59972 46.2108 9.20907 49.7024V36.3391H1.54468V36.956Z" fill="white"/>
<path d="M59.4552 36.956C58.0743 41.8428 55.4001 46.2108 51.7908 49.7024V36.3391H59.4552V36.956Z" fill="white"/>
<path d="M22.8357 61.0465C25.2833 61.6635 27.8552 62 30.5001 62C33.145 62 35.7168 61.6705 38.1645 61.0465V56.6295H22.8284V61.0465H22.8357Z" fill="url(#paint3_linear_19_1389)"/>
<path d="M22.8357 57.2534C25.2833 57.8704 27.8552 58.207 30.5001 58.207C33.145 58.207 35.7168 57.8704 38.1645 57.2534V56.6224H22.8284V57.2534H22.8357Z" fill="white"/>
<path d="M60.5 28.788C60.5 31.3961 60.1347 33.9272 59.4625 36.332C57.7893 41.1066 55.2613 45.3905 51.7908 49.0714C48.0865 52.6471 43.4104 55.2973 38.1717 56.6224C35.6072 57.001 33.1522 57.4077 30.5073 57.4077C27.8624 57.4077 25.4586 57.1132 22.8356 56.6224C17.6115 55.3043 12.9501 52.6611 9.25304 49.0994C5.9944 45.3835 3.2472 41.0786 1.54481 36.332C0.865319 33.9272 0.5 31.3961 0.5 28.788C0.5 12.8866 13.9291 0 30.5 0C47.0709 0 60.5 12.8866 60.5 28.788Z" fill="url(#paint4_linear_19_1389)"/>
<path d="M50.8992 28.788C50.8992 39.5992 41.7662 48.3632 30.4998 48.3632C19.2333 48.3632 10.1003 39.5992 10.1003 28.788C10.1003 17.9767 19.2333 9.21271 30.4998 9.21271C41.7662 9.21271 50.8992 17.9767 50.8992 28.788Z" fill="#FF4545"/>
<path d="M30.5001 0C27.8479 0 25.2833 0.336537 22.8357 0.953523L23.5444 4.39602C23.6905 5.09714 24.6842 6.11376 25.7729 6.11376H35.2346C36.3233 6.11376 37.3242 5.09714 37.4631 4.39602L38.1718 0.953523C35.7241 0.336537 33.1596 0 30.5074 0L30.5001 0Z" fill="url(#paint5_linear_19_1389)"/>
<path d="M4.51837 14.394C3.19592 16.5955 2.20956 18.8952 1.54468 21.2439L5.0079 22.3797C5.70931 22.6111 7.12675 22.2886 7.67473 21.3841L12.4093 13.5246C12.9572 12.6202 12.5335 11.281 11.9782 10.8113L9.22368 8.50458C7.44093 10.2293 5.85544 12.1995 4.53299 14.401L4.51837 14.394Z" fill="url(#paint6_linear_19_1389)"/>
<path d="M4.51836 43.182C5.84081 45.3835 7.4263 47.3536 9.20905 49.0784L11.9636 46.7717C12.5188 46.3019 12.9426 44.9698 12.4019 44.0584L7.66741 36.1988C7.11943 35.2944 5.70199 34.9789 5.00058 35.2032L1.53735 36.339C2.20223 38.6808 3.1886 40.9804 4.51105 43.189L4.51836 43.182Z" fill="url(#paint7_linear_19_1389)"/>
<path d="M30.5001 57.5759C33.1523 57.5759 35.7168 57.2394 38.1645 56.6224L37.4557 53.1799C37.3096 52.4788 36.3159 51.4622 35.2273 51.4622H25.7655C24.6769 51.4622 23.6759 52.4788 23.5371 53.1799L22.8284 56.6224C25.276 57.2394 27.8479 57.5759 30.4928 57.5759H30.5001Z" fill="url(#paint8_linear_19_1389)"/>
<path d="M56.4813 43.1819C57.8111 40.9804 58.7902 38.6808 59.455 36.332L55.9918 35.1962C55.2904 34.9648 53.873 35.2803 53.325 36.1918L48.5978 44.0513C48.0498 44.9558 48.4735 46.2949 49.0288 46.7647L51.7833 49.0713C53.5661 47.3466 55.1516 45.3764 56.474 43.1749L56.4813 43.1819Z" fill="url(#paint9_linear_19_1389)"/>
<path d="M56.4814 14.394C55.1589 12.1925 53.5734 10.2223 51.7907 8.49756L49.0362 10.8042C48.4809 11.274 48.0571 12.6061 48.6051 13.5176L53.3323 21.3771C53.8803 22.2816 55.2904 22.6041 55.9991 22.3727L59.4624 21.2369C58.7975 18.8952 57.8111 16.5955 56.4887 14.387L56.4814 14.394Z" fill="url(#paint10_linear_19_1389)"/>
<path d="M50.7753 31.0736C50.7753 41.8148 41.7007 50.5297 30.5001 50.5297C19.2994 50.5297 10.2249 41.8148 10.2249 31.0736C10.2249 20.3325 19.2994 11.6176 30.5001 11.6176C41.7007 11.6176 50.7753 20.3255 50.7753 31.0736Z" fill="#A10400"/>
<path d="M30.5001 11.6176C41.2989 11.6176 50.1177 19.7155 50.7387 29.9308C50.7607 29.5522 50.7753 29.1736 50.7753 28.788C50.7753 18.0398 41.7007 9.33191 30.5001 9.33191C19.2994 9.33191 10.2249 18.0398 10.2249 28.788C10.2249 29.1736 10.2395 29.5522 10.2614 29.9308C10.8751 19.7225 19.7012 11.6176 30.5001 11.6176Z" fill="#780300"/>
<path d="M17.691 36V26.048L18.395 26.592H15.403V24.32H20.299V36H17.691ZM27.8308 36.304C26.9028 36.304 26.1081 36.1547 25.4468 35.856C24.7854 35.5467 24.2468 35.1307 23.8307 34.608C23.4254 34.0853 23.1214 33.4827 22.9188 32.8C22.7268 32.1067 22.6308 31.376 22.6308 30.608V29.696C22.6308 28.6293 22.8174 27.664 23.1908 26.8C23.5641 25.936 24.1348 25.248 24.9028 24.736C25.6708 24.224 26.6468 23.968 27.8308 23.968C29.0148 23.968 29.9854 24.224 30.7428 24.736C31.5108 25.248 32.0814 25.936 32.4548 26.8C32.8281 27.664 33.0148 28.6293 33.0148 29.696V30.608C33.0148 31.376 32.9134 32.1067 32.7108 32.8C32.5188 33.4827 32.2148 34.0853 31.7988 34.608C31.3934 35.1307 30.8601 35.5467 30.1988 35.856C29.5481 36.1547 28.7588 36.304 27.8308 36.304ZM27.8308 33.888C28.6948 33.888 29.3348 33.5893 29.7508 32.992C30.1774 32.384 30.3908 31.4453 30.3908 30.176C30.3908 28.832 30.1721 27.8667 29.7348 27.28C29.3081 26.6827 28.6734 26.384 27.8308 26.384C26.9668 26.384 26.3214 26.6827 25.8948 27.28C25.4681 27.8667 25.2548 28.8213 25.2548 30.144C25.2548 31.424 25.4628 32.368 25.8788 32.976C26.3054 33.584 26.9561 33.888 27.8308 33.888ZM40.0339 36.304C39.1059 36.304 38.3112 36.1547 37.6499 35.856C36.9885 35.5467 36.4499 35.1307 36.0339 34.608C35.6285 34.0853 35.3245 33.4827 35.1219 32.8C34.9299 32.1067 34.8339 31.376 34.8339 30.608V29.696C34.8339 28.6293 35.0205 27.664 35.3939 26.8C35.7672 25.936 36.3379 25.248 37.1059 24.736C37.8739 24.224 38.8499 23.968 40.0339 23.968C41.2179 23.968 42.1885 24.224 42.9459 24.736C43.7139 25.248 44.2845 25.936 44.6579 26.8C45.0312 27.664 45.2179 28.6293 45.2179 29.696V30.608C45.2179 31.376 45.1165 32.1067 44.9139 32.8C44.7219 33.4827 44.4179 34.0853 44.0019 34.608C43.5965 35.1307 43.0632 35.5467 42.4019 35.856C41.7512 36.1547 40.9619 36.304 40.0339 36.304ZM40.0339 33.888C40.8979 33.888 41.5379 33.5893 41.9539 32.992C42.3805 32.384 42.5939 31.4453 42.5939 30.176C42.5939 28.832 42.3752 27.8667 41.9379 27.28C41.5112 26.6827 40.8765 26.384 40.0339 26.384C39.1699 26.384 38.5245 26.6827 38.0979 27.28C37.6712 27.8667 37.4579 28.8213 37.4579 30.144C37.4579 31.424 37.6659 32.368 38.0819 32.976C38.5085 33.584 39.1592 33.888 40.0339 33.888Z" fill="white"/>
</g>
<defs>
<linearGradient id="paint0_linear_19_1389" x1="30.5" y1="2.69229" x2="30.5" y2="52.3736" gradientUnits="userSpaceOnUse">
<stop stop-color="#FF3936"/>
<stop offset="0.26" stop-color="#E52925"/>
<stop offset="0.75" stop-color="#BB0E0A"/>
<stop offset="1" stop-color="#AB0400"/>
</linearGradient>
<linearGradient id="paint1_linear_19_1389" x1="10.9188" y1="48.223" x2="4.46501" y2="37.4322" gradientUnits="userSpaceOnUse">
<stop stop-color="white"/>
<stop offset="0.15" stop-color="#F2F4F8"/>
<stop offset="0.71" stop-color="#C8D1E1"/>
<stop offset="1" stop-color="#B8C4D9"/>
</linearGradient>
<linearGradient id="paint2_linear_19_1389" x1="50.0811" y1="48.223" x2="56.5348" y2="37.4322" gradientUnits="userSpaceOnUse">
<stop stop-color="white"/>
<stop offset="0.15" stop-color="#F2F4F8"/>
<stop offset="0.71" stop-color="#C8D1E1"/>
<stop offset="1" stop-color="#B8C4D9"/>
</linearGradient>
<linearGradient id="paint3_linear_19_1389" x1="30.3978" y1="67.006" x2="30.4987" y2="58.27" gradientUnits="userSpaceOnUse">
<stop stop-color="white"/>
<stop offset="0.15" stop-color="#F2F4F8"/>
<stop offset="0.71" stop-color="#C8D1E1"/>
<stop offset="1" stop-color="#B8C4D9"/>
</linearGradient>
<linearGradient id="paint4_linear_19_1389" x1="8.80005" y1="40.8683" x2="68.7299" y2="4.6336" gradientUnits="userSpaceOnUse">
<stop stop-color="#FF3936"/>
<stop offset="0.26" stop-color="#E52925"/>
<stop offset="0.75" stop-color="#BB0E0A"/>
<stop offset="1" stop-color="#AB0400"/>
</linearGradient>
<linearGradient id="paint5_linear_19_1389" x1="22.8357" y1="3.05688" x2="38.1645" y2="3.05688" gradientUnits="userSpaceOnUse">
<stop stop-color="white"/>
<stop offset="0.15" stop-color="#F2F4F8"/>
<stop offset="0.71" stop-color="#C8D1E1"/>
<stop offset="1" stop-color="#B8C4D9"/>
</linearGradient>
<linearGradient id="paint6_linear_19_1389" x1="3.42548" y1="22.2862" x2="10.629" y2="9.28399" gradientUnits="userSpaceOnUse">
<stop stop-color="white"/>
<stop offset="0.15" stop-color="#F2F4F8"/>
<stop offset="0.71" stop-color="#C8D1E1"/>
<stop offset="1" stop-color="#B8C4D9"/>
</linearGradient>
<linearGradient id="paint7_linear_19_1389" x1="11.091" y1="47.9956" x2="3.89087" y2="34.9996" gradientUnits="userSpaceOnUse">
<stop stop-color="white"/>
<stop offset="0.15" stop-color="#F2F4F8"/>
<stop offset="0.71" stop-color="#C8D1E1"/>
<stop offset="1" stop-color="#B8C4D9"/>
</linearGradient>
<linearGradient id="paint8_linear_19_1389" x1="38.1718" y1="54.5261" x2="22.8357" y2="54.5261" gradientUnits="userSpaceOnUse">
<stop stop-color="white"/>
<stop offset="0.15" stop-color="#F2F4F8"/>
<stop offset="0.71" stop-color="#C8D1E1"/>
<stop offset="1" stop-color="#B8C4D9"/>
</linearGradient>
<linearGradient id="paint9_linear_19_1389" x1="57.5436" y1="35.313" x2="50.34" y2="48.3152" gradientUnits="userSpaceOnUse">
<stop stop-color="white"/>
<stop offset="0.15" stop-color="#F2F4F8"/>
<stop offset="0.71" stop-color="#C8D1E1"/>
<stop offset="1" stop-color="#B8C4D9"/>
</linearGradient>
<linearGradient id="paint10_linear_19_1389" x1="49.8752" y1="9.56626" x2="57.0753" y2="22.5623" gradientUnits="userSpaceOnUse">
<stop stop-color="white"/>
<stop offset="0.15" stop-color="#F2F4F8"/>
<stop offset="0.71" stop-color="#C8D1E1"/>
<stop offset="1" stop-color="#B8C4D9"/>
</linearGradient>
<clipPath id="clip0_19_1389">
<rect width="60" height="62" fill="white" transform="translate(0.5)"/>
</clipPath>
</defs>
</svg>
