<svg width="61" height="62" viewBox="0 0 61 62" fill="none" xmlns="http://www.w3.org/2000/svg">
<g clip-path="url(#clip0_19_1410)">
<path d="M60.5002 33.212C60.5002 35.8202 60.1422 38.3442 59.4627 40.7491C57.943 45.3975 55.2396 49.7024 51.791 53.4954C48.0867 57.0781 43.4106 59.7284 38.1646 61.0535C35.5489 61.5933 33.1451 61.8528 30.5002 61.8528C27.8553 61.8528 25.4954 61.6004 22.8285 61.0535C17.5899 59.7284 12.9065 57.0781 9.20213 53.4954C6.06769 49.9337 3.16706 45.096 1.53043 40.7491C0.850933 38.3442 0.49292 35.8202 0.49292 33.212V28.788H60.4856V33.212H60.5002Z" fill="url(#paint0_linear_19_1410)"/>
<path d="M30.5 58.2069C46.9613 58.2069 60.3173 45.4816 60.4927 29.7275V29.0544C60.4927 28.9632 60.4927 28.8791 60.4854 28.788H0.514613C0.514613 28.9983 0.5 29.2086 0.5 29.419C0.5 45.3204 13.9291 58.2069 30.5 58.2069Z" fill="#5DCC3E"/>
<path d="M1.54492 40.7421C2.92583 45.6289 5.59996 50.0039 9.20932 53.4884V36.332H1.54492V40.7421Z" fill="url(#paint1_linear_19_1410)"/>
<path d="M59.4552 40.7421C58.0743 45.6289 55.4001 50.0039 51.7908 53.4884V36.332H59.4552V40.7421Z" fill="url(#paint2_linear_19_1410)"/>
<path d="M1.54492 36.956C2.92583 41.8428 5.59996 46.2108 9.20932 49.7024V36.3391H1.54492V36.956Z" fill="#414345"/>
<path d="M59.4552 36.956C58.0743 41.8428 55.4001 46.2108 51.7908 49.7024V36.3391H59.4552V36.956Z" fill="#414345"/>
<path d="M22.8354 61.0464C25.2831 61.6634 27.8549 62 30.4998 62C33.1447 62 35.7166 61.6704 38.1642 61.0464V56.6294H22.8281V61.0464H22.8354Z" fill="url(#paint3_linear_19_1410)"/>
<path d="M22.8354 57.2534C25.2831 57.8704 27.8549 58.2069 30.4998 58.2069C33.1447 58.2069 35.7166 57.8704 38.1642 57.2534V56.6224H22.8281V57.2534H22.8354Z" fill="#414345"/>
<path d="M60.5 28.788C60.5 31.3961 60.142 33.9272 59.4625 36.332C57.7893 41.1066 55.2613 45.3905 51.7908 49.0714C48.0865 52.6471 43.4104 55.2973 38.1717 56.6224C35.6072 57.001 33.1522 57.4077 30.5073 57.4077C27.8624 57.4077 25.4586 57.1132 22.8356 56.6224C17.6115 55.3043 12.9501 52.6611 9.25304 49.0994C5.9944 45.3835 3.2472 41.0786 1.54481 36.332C0.865319 33.9272 0.5 31.3961 0.5 28.788C0.5 26.1798 0.865319 23.6488 1.54481 21.2369C3.3641 16.4974 6.10399 12.0312 9.21651 8.49758C12.9208 4.92187 17.5969 2.27164 22.8283 0.946526C25.2686 0.434709 27.8478 0.231384 30.5 0.231384C33.1522 0.231384 35.7314 0.44172 38.1644 0.946526C43.3885 2.26463 48.0499 4.90785 51.747 8.46954C55.181 12.1434 57.6505 16.5324 59.4552 21.2369C60.1347 23.6418 60.4927 26.1728 60.4927 28.788H60.5Z" fill="url(#paint4_linear_19_1410)"/>
<path d="M50.8994 28.788C50.8994 39.5992 41.7664 48.3632 30.5 48.3632C19.2336 48.3632 10.1006 39.5992 10.1006 28.788C10.1006 17.9767 19.2336 9.21271 30.5 9.21271C41.7664 9.21271 50.8994 17.9767 50.8994 28.788Z" fill="#5DCC3E"/>
<path d="M50.7753 28.788C50.7753 39.5291 41.7007 48.244 30.5001 48.244C19.2994 48.244 10.2249 39.5361 10.2249 28.788C10.2249 18.0398 19.2994 9.33191 30.5001 9.33191C41.7007 9.33191 50.7753 18.0398 50.7753 28.788Z" fill="#5DCC3E"/>
<path d="M30.5001 11.6176C41.2989 11.6176 50.1177 19.7155 50.7387 29.9308C50.7607 29.5522 50.7753 29.1736 50.7753 28.788C50.7753 18.0398 41.7007 9.33191 30.5001 9.33191C19.2994 9.33191 10.2249 18.0398 10.2249 28.788C10.2249 29.1736 10.2395 29.5522 10.2614 29.9308C10.8824 19.7225 19.7012 11.6176 30.5001 11.6176Z" fill="#1A6E02"/>
<path d="M30.5001 0C27.8479 0 25.2833 0.336537 22.8357 0.953523L23.5444 4.39602C23.6905 5.09714 24.6842 6.11376 25.7729 6.11376H35.2346C36.3306 6.11376 37.3242 5.09714 37.4631 4.39602L38.1718 0.953523C35.7241 0.336537 33.1523 0 30.5074 0L30.5001 0Z" fill="url(#paint5_linear_19_1410)"/>
<path d="M4.51862 14.394C3.19616 16.5956 2.2098 18.8952 1.54492 21.244L5.00815 22.3798C5.70956 22.6112 7.127 22.2886 7.67497 21.3842L12.4022 13.5247C12.9502 12.6202 12.5264 11.2811 11.9711 10.8113L9.21662 8.50464C7.43386 10.2294 5.84838 12.1995 4.52593 14.4011L4.51862 14.394Z" fill="url(#paint6_linear_19_1410)"/>
<path d="M4.51862 43.1819C5.84107 45.3834 7.42656 47.3536 9.20932 49.0783L11.9638 46.7716C12.5191 46.3019 12.9429 44.9698 12.4022 44.0583L7.67497 36.1988C7.127 35.2943 5.70956 34.9788 5.00815 35.2032L1.54492 36.339C2.2098 38.6807 3.19616 40.9804 4.51862 43.1889V43.1819Z" fill="url(#paint7_linear_19_1410)"/>
<path d="M30.4998 57.576C33.152 57.576 35.7166 57.2394 38.1642 56.6225L37.4555 53.18C37.3094 52.4788 36.3157 51.4622 35.2271 51.4622H25.7653C24.6766 51.4622 23.6757 52.4788 23.5368 53.18L22.8281 56.6225C25.2758 57.2394 27.8476 57.576 30.4925 57.576H30.4998Z" fill="url(#paint8_linear_19_1410)"/>
<path d="M56.4816 43.182C57.8113 40.9805 58.7904 38.6808 59.4553 36.3321L55.9921 35.1962C55.2906 34.9649 53.8732 35.2804 53.3252 36.1918L48.598 44.0514C48.05 44.9558 48.4738 46.295 49.0291 46.7647L51.7836 49.0714C53.5663 47.3466 55.1518 45.3765 56.4743 43.175L56.4816 43.182Z" fill="url(#paint9_linear_19_1410)"/>
<path d="M56.4814 14.394C55.1589 12.1925 53.5734 10.2224 51.7907 8.49762L49.0362 10.8043C48.4809 11.2741 48.0571 12.6062 48.6051 13.5176L53.3323 21.3772C53.8803 22.2816 55.2904 22.6041 55.9991 22.3728L59.4624 21.237C58.7975 18.8952 57.8111 16.5956 56.4887 14.387L56.4814 14.394Z" fill="url(#paint10_linear_19_1410)"/>
<path d="M24.966 36.304C24.038 36.304 23.238 36.128 22.566 35.776C21.894 35.4133 21.3767 34.928 21.014 34.32C20.662 33.712 20.486 33.04 20.486 32.304H23.014C23.014 32.6667 23.094 32.9867 23.254 33.264C23.4247 33.5307 23.6593 33.744 23.958 33.904C24.2567 34.0533 24.598 34.128 24.982 34.128C25.4087 34.128 25.766 34.0427 26.054 33.872C26.3527 33.6907 26.582 33.4507 26.742 33.152C26.902 32.8427 26.982 32.496 26.982 32.112C26.982 31.7173 26.902 31.3707 26.742 31.072C26.5927 30.7627 26.3687 30.5173 26.07 30.336C25.782 30.1547 25.43 30.064 25.014 30.064C24.63 30.064 24.2833 30.144 23.974 30.304C23.6647 30.464 23.4353 30.6667 23.286 30.912H20.822L21.414 24.32H28.502V26.56H22.454L23.462 25.888L23.11 29.68L22.502 29.52C22.822 29.136 23.206 28.816 23.654 28.56C24.1127 28.2933 24.71 28.16 25.446 28.16C26.2993 28.16 27.0247 28.336 27.622 28.688C28.23 29.0293 28.694 29.4933 29.014 30.08C29.3447 30.656 29.51 31.3013 29.51 32.016V32.224C29.51 32.9387 29.334 33.6053 28.982 34.224C28.63 34.8427 28.1127 35.344 27.43 35.728C26.758 36.112 25.9367 36.304 24.966 36.304ZM36.1589 36.304C35.2309 36.304 34.4362 36.1547 33.7749 35.856C33.1135 35.5467 32.5749 35.1307 32.1589 34.608C31.7535 34.0853 31.4495 33.4827 31.2469 32.8C31.0549 32.1067 30.9589 31.376 30.9589 30.608V29.696C30.9589 28.6293 31.1455 27.664 31.5189 26.8C31.8922 25.936 32.4629 25.248 33.2309 24.736C33.9989 24.224 34.9749 23.968 36.1589 23.968C37.3429 23.968 38.3135 24.224 39.0709 24.736C39.8389 25.248 40.4095 25.936 40.7829 26.8C41.1562 27.664 41.3429 28.6293 41.3429 29.696V30.608C41.3429 31.376 41.2415 32.1067 41.0389 32.8C40.8469 33.4827 40.5429 34.0853 40.1269 34.608C39.7215 35.1307 39.1882 35.5467 38.5269 35.856C37.8762 36.1547 37.0869 36.304 36.1589 36.304ZM36.1589 33.888C37.0229 33.888 37.6629 33.5893 38.0789 32.992C38.5055 32.384 38.7189 31.4453 38.7189 30.176C38.7189 28.832 38.5002 27.8667 38.0629 27.28C37.6362 26.6827 37.0015 26.384 36.1589 26.384C35.2949 26.384 34.6495 26.6827 34.2229 27.28C33.7962 27.8667 33.5829 28.8213 33.5829 30.144C33.5829 31.424 33.7909 32.368 34.2069 32.976C34.6335 33.584 35.2842 33.888 36.1589 33.888Z" fill="black"/>
</g>
<defs>
<linearGradient id="paint0_linear_19_1410" x1="30.5002" y1="2.81149" x2="30.5002" y2="52.2685" gradientUnits="userSpaceOnUse">
<stop stop-color="#2EC42A"/>
<stop offset="0.19" stop-color="#23B902"/>
<stop offset="0.72" stop-color="#24A202"/>
<stop offset="1" stop-color="#1F8A00"/>
</linearGradient>
<linearGradient id="paint1_linear_19_1410" x1="10.919" y1="48.223" x2="4.46526" y2="37.4322" gradientUnits="userSpaceOnUse">
<stop stop-color="#38393B"/>
<stop offset="0.33" stop-color="#2E2F31"/>
<stop offset="1" stop-color="#1F2021"/>
</linearGradient>
<linearGradient id="paint2_linear_19_1410" x1="50.0811" y1="48.223" x2="56.5348" y2="37.4322" gradientUnits="userSpaceOnUse">
<stop stop-color="#38393B"/>
<stop offset="0.33" stop-color="#2E2F31"/>
<stop offset="1" stop-color="#1F2021"/>
</linearGradient>
<linearGradient id="paint3_linear_19_1410" x1="30.3975" y1="67.006" x2="30.4985" y2="58.2699" gradientUnits="userSpaceOnUse">
<stop stop-color="#38393B"/>
<stop offset="0.33" stop-color="#2E2F31"/>
<stop offset="1" stop-color="#1F2021"/>
</linearGradient>
<linearGradient id="paint4_linear_19_1410" x1="8.78544" y1="40.8823" x2="68.4431" y2="4.80438" gradientUnits="userSpaceOnUse">
<stop stop-color="#32C239"/>
<stop offset="0.19" stop-color="#22CA00"/>
<stop offset="0.72" stop-color="#249900"/>
<stop offset="1" stop-color="#008307"/>
</linearGradient>
<linearGradient id="paint5_linear_19_1410" x1="22.8357" y1="3.05688" x2="38.1645" y2="3.05688" gradientUnits="userSpaceOnUse">
<stop stop-color="#38393B"/>
<stop offset="0.33" stop-color="#2E2F31"/>
<stop offset="1" stop-color="#1F2021"/>
</linearGradient>
<linearGradient id="paint6_linear_19_1410" x1="3.42877" y1="22.2805" x2="10.6289" y2="9.28451" gradientUnits="userSpaceOnUse">
<stop stop-color="#38393B"/>
<stop offset="0.33" stop-color="#2E2F31"/>
<stop offset="1" stop-color="#1F2021"/>
</linearGradient>
<linearGradient id="paint7_linear_19_1410" x1="11.0943" y1="48.0027" x2="3.89074" y2="35.0005" gradientUnits="userSpaceOnUse">
<stop stop-color="#38393B"/>
<stop offset="0.33" stop-color="#2E2F31"/>
<stop offset="1" stop-color="#1F2021"/>
</linearGradient>
<linearGradient id="paint8_linear_19_1410" x1="38.1715" y1="54.5261" x2="22.8354" y2="54.5261" gradientUnits="userSpaceOnUse">
<stop stop-color="#38393B"/>
<stop offset="0.33" stop-color="#2E2F31"/>
<stop offset="1" stop-color="#1F2021"/>
</linearGradient>
<linearGradient id="paint9_linear_19_1410" x1="57.5432" y1="35.312" x2="50.3397" y2="48.3142" gradientUnits="userSpaceOnUse">
<stop stop-color="#38393B"/>
<stop offset="0.33" stop-color="#2E2F31"/>
<stop offset="1" stop-color="#1F2021"/>
</linearGradient>
<linearGradient id="paint10_linear_19_1410" x1="49.8809" y1="9.56247" x2="57.0844" y2="22.5647" gradientUnits="userSpaceOnUse">
<stop stop-color="#38393B"/>
<stop offset="0.33" stop-color="#2E2F31"/>
<stop offset="1" stop-color="#1F2021"/>
</linearGradient>
<clipPath id="clip0_19_1410">
<rect width="60" height="62" fill="white" transform="translate(0.5)"/>
</clipPath>
</defs>
</svg>
