<svg width="61" height="62" viewBox="0 0 61 62" fill="none" xmlns="http://www.w3.org/2000/svg">
<g clip-path="url(#clip0_19_1369)">
<path d="M60.5 33.212C60.5 35.8202 60.1347 38.3442 59.4625 40.7491C57.9427 45.3975 55.2394 49.7024 51.7908 53.4954C48.0864 57.0781 43.4104 59.7284 38.1644 61.0535C35.5487 61.5933 33.1449 61.8528 30.5 61.8528C27.8551 61.8528 25.4951 61.6004 22.8283 61.0535C17.5896 59.7284 12.9062 57.0781 9.20188 53.4954C6.06744 49.9337 3.16681 45.096 1.53018 40.7491C0.850688 38.3442 0.492676 35.8202 0.492676 33.212V28.788H60.4854V33.212H60.5Z" fill="url(#paint0_linear_19_1369)"/>
<path d="M30.5 58.2069C46.9613 58.2069 60.3173 45.4816 60.4927 29.7275V29.0544C60.4927 28.9632 60.4927 28.8791 60.4854 28.788H0.514613C0.514613 28.9983 0.5 29.2086 0.5 29.419C0.5 45.3204 13.9291 58.2069 30.5 58.2069Z" fill="#29DFFF"/>
<path d="M1.54468 40.7421C2.92558 45.6289 5.59972 50.0039 9.21638 53.4884V36.332H1.54468V40.7421Z" fill="url(#paint1_linear_19_1369)"/>
<path d="M59.4552 40.7421C58.0743 45.6289 55.4001 50.0039 51.7908 53.4884V36.332H59.4552V40.7421Z" fill="url(#paint2_linear_19_1369)"/>
<path d="M1.54468 36.956C2.92558 41.8428 5.59972 46.2108 9.21638 49.7024V36.3391H1.54468V36.956Z" fill="#414345"/>
<path d="M59.4552 36.956C58.0743 41.8428 55.4001 46.2108 51.7908 49.7024V36.3391H59.4552V36.956Z" fill="#414345"/>
<path d="M22.8357 61.0464C25.2833 61.6634 27.8552 62 30.5074 62C33.1596 62 35.7242 61.6704 38.1718 61.0464V56.6294H22.8357V61.0464Z" fill="url(#paint3_linear_19_1369)"/>
<path d="M22.8357 57.2534C25.2833 57.8704 27.8552 58.207 30.5074 58.207C33.1596 58.207 35.7242 57.8704 38.1718 57.2534V56.6224H22.8357V57.2534Z" fill="#414345"/>
<path d="M60.5 28.788C60.5 31.3961 60.1347 33.9272 59.4625 36.332C57.7893 41.1067 55.2613 45.3905 51.7908 49.0714C48.0865 52.6471 43.4104 55.2973 38.1717 56.6224C35.6072 57.001 33.1522 57.4077 30.5073 57.4077C27.8624 57.4077 25.4586 57.1132 22.8356 56.6224C17.6115 55.3043 12.9501 52.6611 9.25304 49.0994C5.9944 45.3835 3.2472 41.0786 1.54481 36.332C0.865319 33.9272 0.5 31.3961 0.5 28.788C0.5 26.1798 0.865319 23.6488 1.54481 21.2369C3.3641 16.4974 6.10399 12.0312 9.21651 8.49758C12.9208 4.92187 17.5969 2.27164 22.8283 0.946526C25.2686 0.434709 27.8478 0.231384 30.5 0.231384C33.1522 0.231384 35.7314 0.44172 38.1644 0.946526C43.3885 2.26463 48.0499 4.90785 51.7543 8.46954C55.1883 12.1434 57.6578 16.5324 59.4625 21.2369C60.142 23.6418 60.5073 26.1728 60.5073 28.788H60.5Z" fill="url(#paint4_linear_19_1369)"/>
<path d="M50.8994 28.788C50.8994 39.5992 41.7665 48.3632 30.5073 48.3632C19.2482 48.3632 10.1079 39.5992 10.1079 28.788C10.1079 17.9767 19.2409 9.21271 30.5073 9.21271C41.7738 9.21271 50.8994 17.9767 50.8994 28.788Z" fill="#29DFFF"/>
<path d="M50.7753 28.788C50.7753 39.5291 41.7007 48.244 30.5001 48.244C19.2994 48.244 10.2249 39.5361 10.2249 28.788C10.2249 18.0398 19.2994 9.33191 30.5001 9.33191C41.7007 9.33191 50.7753 18.0398 50.7753 28.788Z" fill="#0098ED"/>
<path d="M30.5001 11.6176C41.2989 11.6176 50.1177 19.7155 50.7387 29.9308C50.7607 29.5522 50.7753 29.1736 50.7753 28.788C50.7753 18.0398 41.7007 9.33191 30.5001 9.33191C19.2994 9.33191 10.2249 18.0398 10.2249 28.788C10.2249 29.1736 10.2395 29.5522 10.2614 29.9308C10.8824 19.7225 19.7012 11.6176 30.5001 11.6176Z" fill="#0083CC"/>
<path d="M30.5001 0C27.8479 0 25.2833 0.336537 22.8357 0.953523L23.5444 4.39602C23.6905 5.09714 24.6842 6.11376 25.7729 6.11376H35.2346C36.3233 6.11376 37.3242 5.09714 37.4631 4.39602L38.1718 0.953523C35.7242 0.336537 33.1596 0 30.5074 0L30.5001 0Z" fill="url(#paint5_linear_19_1369)"/>
<path d="M4.51838 14.394C3.19592 16.5955 2.20956 18.8952 1.54468 21.2439L5.0079 22.3797C5.70932 22.6111 7.12675 22.2886 7.67473 21.3841L12.402 13.5246C12.9499 12.6202 12.5262 11.281 11.9709 10.8113L9.21638 8.50458C7.43362 10.2293 5.84814 12.1995 4.52568 14.401L4.51838 14.394Z" fill="url(#paint6_linear_19_1369)"/>
<path d="M4.51837 43.182C5.84083 45.3835 7.42631 47.3536 9.20907 49.0784L11.9636 46.7717C12.5189 46.3019 12.9426 44.9698 12.402 44.0584L7.67473 36.1988C7.12675 35.2944 5.70931 34.9789 5.0079 35.2032L1.54468 36.339C2.20956 38.6808 3.19592 40.9804 4.51837 43.189V43.182Z" fill="url(#paint7_linear_19_1369)"/>
<path d="M30.5001 57.5759C33.1523 57.5759 35.7168 57.2394 38.1645 56.6224L37.4557 53.1799C37.3096 52.4788 36.3159 51.4622 35.2273 51.4622H25.7655C24.6769 51.4622 23.6759 52.4788 23.5371 53.1799L22.8284 56.6224C25.276 57.2394 27.8479 57.5759 30.5001 57.5759Z" fill="url(#paint8_linear_19_1369)"/>
<path d="M56.4816 43.1819C57.804 40.9804 58.7904 38.6808 59.4553 36.332L55.9921 35.1962C55.2906 34.9648 53.8732 35.2803 53.3252 36.1918L48.598 44.0513C48.05 44.9558 48.4738 46.2949 49.0291 46.7647L51.7836 49.0713C53.5663 47.3466 55.1518 45.3764 56.4743 43.1749L56.4816 43.1819Z" fill="url(#paint9_linear_19_1369)"/>
<path d="M56.4816 14.394C55.1592 12.1925 53.5737 10.2223 51.7909 8.49756L49.0364 10.8042C48.4811 11.274 48.0573 12.6061 48.6053 13.5176L53.3326 21.3771C53.8805 22.2816 55.298 22.6041 55.9994 22.3727L59.4626 21.2369C58.7977 18.8952 57.8114 16.5955 56.4889 14.387L56.4816 14.394Z" fill="url(#paint10_linear_19_1369)"/>
<path d="M14.4533 35V26.292L15.0693 26.768H12.4513V24.78H16.7353V35H14.4533ZM23.3255 35.266C22.5135 35.266 21.8182 35.1353 21.2395 34.874C20.6609 34.6033 20.1895 34.2393 19.8255 33.782C19.4709 33.3247 19.2049 32.7973 19.0275 32.2C18.8595 31.5933 18.7755 30.954 18.7755 30.282V29.484C18.7755 28.5507 18.9389 27.706 19.2655 26.95C19.5922 26.194 20.0915 25.592 20.7635 25.144C21.4355 24.696 22.2895 24.472 23.3255 24.472C24.3615 24.472 25.2109 24.696 25.8735 25.144C26.5455 25.592 27.0449 26.194 27.3715 26.95C27.6982 27.706 27.8615 28.5507 27.8615 29.484V30.282C27.8615 30.954 27.7729 31.5933 27.5955 32.2C27.4275 32.7973 27.1615 33.3247 26.7975 33.782C26.4429 34.2393 25.9762 34.6033 25.3975 34.874C24.8282 35.1353 24.1375 35.266 23.3255 35.266ZM23.3255 33.152C24.0815 33.152 24.6415 32.8907 25.0055 32.368C25.3789 31.836 25.5655 31.0147 25.5655 29.904C25.5655 28.728 25.3742 27.8833 24.9915 27.37C24.6182 26.8473 24.0629 26.586 23.3255 26.586C22.5695 26.586 22.0049 26.8473 21.6315 27.37C21.2582 27.8833 21.0715 28.7187 21.0715 29.876C21.0715 30.996 21.2535 31.822 21.6175 32.354C21.9909 32.886 22.5602 33.152 23.3255 33.152ZM34.0033 35.266C33.1913 35.266 32.4959 35.1353 31.9173 34.874C31.3386 34.6033 30.8673 34.2393 30.5033 33.782C30.1486 33.3247 29.8826 32.7973 29.7053 32.2C29.5373 31.5933 29.4533 30.954 29.4533 30.282V29.484C29.4533 28.5507 29.6166 27.706 29.9433 26.95C30.2699 26.194 30.7693 25.592 31.4413 25.144C32.1133 24.696 32.9673 24.472 34.0033 24.472C35.0393 24.472 35.8886 24.696 36.5513 25.144C37.2233 25.592 37.7226 26.194 38.0493 26.95C38.3759 27.706 38.5393 28.5507 38.5393 29.484V30.282C38.5393 30.954 38.4506 31.5933 38.2733 32.2C38.1053 32.7973 37.8393 33.3247 37.4753 33.782C37.1206 34.2393 36.6539 34.6033 36.0753 34.874C35.5059 35.1353 34.8153 35.266 34.0033 35.266ZM34.0033 33.152C34.7593 33.152 35.3193 32.8907 35.6833 32.368C36.0566 31.836 36.2433 31.0147 36.2433 29.904C36.2433 28.728 36.0519 27.8833 35.6693 27.37C35.2959 26.8473 34.7406 26.586 34.0033 26.586C33.2473 26.586 32.6826 26.8473 32.3093 27.37C31.9359 27.8833 31.7493 28.7187 31.7493 29.876C31.7493 30.996 31.9313 31.822 32.2953 32.354C32.6686 32.886 33.2379 33.152 34.0033 33.152ZM44.681 35.266C43.869 35.266 43.1737 35.1353 42.595 34.874C42.0163 34.6033 41.545 34.2393 41.181 33.782C40.8263 33.3247 40.5603 32.7973 40.383 32.2C40.215 31.5933 40.131 30.954 40.131 30.282V29.484C40.131 28.5507 40.2943 27.706 40.621 26.95C40.9477 26.194 41.447 25.592 42.119 25.144C42.791 24.696 43.645 24.472 44.681 24.472C45.717 24.472 46.5663 24.696 47.229 25.144C47.901 25.592 48.4003 26.194 48.727 26.95C49.0537 27.706 49.217 28.5507 49.217 29.484V30.282C49.217 30.954 49.1283 31.5933 48.951 32.2C48.783 32.7973 48.517 33.3247 48.153 33.782C47.7983 34.2393 47.3317 34.6033 46.753 34.874C46.1837 35.1353 45.493 35.266 44.681 35.266ZM44.681 33.152C45.437 33.152 45.997 32.8907 46.361 32.368C46.7343 31.836 46.921 31.0147 46.921 29.904C46.921 28.728 46.7297 27.8833 46.347 27.37C45.9737 26.8473 45.4183 26.586 44.681 26.586C43.925 26.586 43.3603 26.8473 42.987 27.37C42.6137 27.8833 42.427 28.7187 42.427 29.876C42.427 30.996 42.609 31.822 42.973 32.354C43.3463 32.886 43.9157 33.152 44.681 33.152Z" fill="white"/>
</g>
<defs>
<linearGradient id="paint0_linear_19_1369" x1="30.5" y1="2.81149" x2="30.5" y2="52.2685" gradientUnits="userSpaceOnUse">
<stop stop-color="#29DFFF"/>
<stop offset="0.15" stop-color="#21D2FB"/>
<stop offset="0.71" stop-color="#09A8F1"/>
<stop offset="1" stop-color="#0098ED"/>
</linearGradient>
<linearGradient id="paint1_linear_19_1369" x1="10.9188" y1="48.223" x2="4.46501" y2="37.4322" gradientUnits="userSpaceOnUse">
<stop stop-color="#38393B"/>
<stop offset="0.33" stop-color="#2E2F31"/>
<stop offset="1" stop-color="#1F2021"/>
</linearGradient>
<linearGradient id="paint2_linear_19_1369" x1="50.0884" y1="48.223" x2="56.5421" y2="37.4322" gradientUnits="userSpaceOnUse">
<stop stop-color="#38393B"/>
<stop offset="0.33" stop-color="#2E2F31"/>
<stop offset="1" stop-color="#1F2021"/>
</linearGradient>
<linearGradient id="paint3_linear_19_1369" x1="30.3978" y1="67.006" x2="30.4987" y2="58.2699" gradientUnits="userSpaceOnUse">
<stop stop-color="#38393B"/>
<stop offset="0.33" stop-color="#2E2F31"/>
<stop offset="1" stop-color="#1F2021"/>
</linearGradient>
<linearGradient id="paint4_linear_19_1369" x1="8.77813" y1="40.8823" x2="68.4432" y2="4.80425" gradientUnits="userSpaceOnUse">
<stop stop-color="#29DFFF"/>
<stop offset="0.15" stop-color="#21D2FB"/>
<stop offset="0.71" stop-color="#09A8F1"/>
<stop offset="1" stop-color="#0098ED"/>
</linearGradient>
<linearGradient id="paint5_linear_19_1369" x1="22.8357" y1="3.05688" x2="38.1645" y2="3.05688" gradientUnits="userSpaceOnUse">
<stop stop-color="#38393B"/>
<stop offset="0.33" stop-color="#2E2F31"/>
<stop offset="1" stop-color="#1F2021"/>
</linearGradient>
<linearGradient id="paint6_linear_19_1369" x1="3.43423" y1="22.2843" x2="10.6343" y2="9.2883" gradientUnits="userSpaceOnUse">
<stop stop-color="#38393B"/>
<stop offset="0.33" stop-color="#2E2F31"/>
<stop offset="1" stop-color="#1F2021"/>
</linearGradient>
<linearGradient id="paint7_linear_19_1369" x1="11.0997" y1="48.0003" x2="3.89964" y2="35.0042" gradientUnits="userSpaceOnUse">
<stop stop-color="#38393B"/>
<stop offset="0.33" stop-color="#2E2F31"/>
<stop offset="1" stop-color="#1F2021"/>
</linearGradient>
<linearGradient id="paint8_linear_19_1369" x1="38.1645" y1="54.5261" x2="22.8357" y2="54.5261" gradientUnits="userSpaceOnUse">
<stop stop-color="#38393B"/>
<stop offset="0.33" stop-color="#2E2F31"/>
<stop offset="1" stop-color="#1F2021"/>
</linearGradient>
<linearGradient id="paint9_linear_19_1369" x1="57.5389" y1="35.3049" x2="50.3354" y2="48.3071" gradientUnits="userSpaceOnUse">
<stop stop-color="#38393B"/>
<stop offset="0.33" stop-color="#2E2F31"/>
<stop offset="1" stop-color="#1F2021"/>
</linearGradient>
<linearGradient id="paint10_linear_19_1369" x1="49.8732" y1="9.56207" x2="57.0768" y2="22.5643" gradientUnits="userSpaceOnUse">
<stop stop-color="#38393B"/>
<stop offset="0.33" stop-color="#2E2F31"/>
<stop offset="1" stop-color="#1F2021"/>
</linearGradient>
<clipPath id="clip0_19_1369">
<rect width="60" height="62" fill="white" transform="translate(0.5)"/>
</clipPath>
</defs>
</svg>
