<svg width="61" height="62" viewBox="0 0 61 62" fill="none" xmlns="http://www.w3.org/2000/svg">
<g clip-path="url(#clip0_19_1431)">
<path d="M60.5002 33.212C60.5002 35.8202 60.1422 38.3442 59.4627 40.7491C57.943 45.3975 55.2396 49.7024 51.791 53.4954C48.0867 57.0781 43.4106 59.7284 38.1646 61.0535C35.5489 61.5933 33.1451 61.8528 30.5002 61.8528C27.8553 61.8528 25.4954 61.6004 22.8285 61.0535C17.5899 59.7284 12.9065 57.0781 9.20213 53.4954C6.06769 49.9337 3.16706 45.096 1.53043 40.7491C0.850933 38.3442 0.49292 35.8202 0.49292 33.212V28.788H60.4856V33.212H60.5002Z" fill="url(#paint0_linear_19_1431)"/>
<path d="M30.5 58.2069C46.9613 58.2069 60.3173 45.4816 60.4927 29.7275V29.0544C60.4927 28.9632 60.4927 28.8791 60.4854 28.788H0.514613C0.514613 28.9983 0.5 29.2086 0.5 29.419C0.5 45.3204 13.9291 58.2069 30.5 58.2069Z" fill="#FFF266"/>
<path d="M1.54492 40.7421C2.92583 45.6289 5.59996 50.0039 9.20932 53.4884V36.332H1.54492V40.7421Z" fill="url(#paint1_linear_19_1431)"/>
<path d="M59.4552 40.7421C58.0743 45.6289 55.4001 50.0039 51.7908 53.4884V36.332H59.4552V40.7421Z" fill="url(#paint2_linear_19_1431)"/>
<path d="M1.54492 36.956C2.92583 41.8428 5.59996 46.2108 9.20932 49.7024V36.3391H1.54492V36.956Z" fill="#414345"/>
<path d="M59.4552 36.956C58.0743 41.8428 55.4001 46.2108 51.7908 49.7024V36.3391H59.4552V36.956Z" fill="#414345"/>
<path d="M22.8354 61.0464C25.2831 61.6634 27.8549 62 30.4998 62C33.1447 62 35.7166 61.6704 38.1642 61.0464V56.6294H22.8281V61.0464H22.8354Z" fill="url(#paint3_linear_19_1431)"/>
<path d="M22.8354 57.2534C25.2831 57.8704 27.8549 58.2069 30.4998 58.2069C33.1447 58.2069 35.7166 57.8704 38.1642 57.2534V56.6224H22.8281V57.2534H22.8354Z" fill="#414345"/>
<path d="M60.5 28.788C60.5 31.3961 60.142 33.9272 59.4625 36.332C57.7893 41.1066 55.2613 45.3905 51.7908 49.0714C48.0865 52.6471 43.4104 55.2973 38.1717 56.6224C35.6072 57.001 33.1522 57.4077 30.5073 57.4077C27.8624 57.4077 25.4586 57.1132 22.8356 56.6224C17.6115 55.3043 12.9501 52.6611 9.25304 49.0994C5.9944 45.3835 3.2472 41.0786 1.54481 36.332C0.865319 33.9272 0.5 31.3961 0.5 28.788C0.5 26.1798 0.865319 23.6488 1.54481 21.2369C3.3641 16.4974 6.10399 12.0312 9.21651 8.49758C12.9208 4.92187 17.5969 2.27164 22.8283 0.946526C25.2686 0.434709 27.8478 0.231384 30.5 0.231384C33.1522 0.231384 35.7314 0.44172 38.1644 0.946526C43.3885 2.26463 48.0499 4.90785 51.747 8.46954C55.181 12.1434 57.6505 16.5324 59.4552 21.2369C60.1347 23.6418 60.4927 26.1728 60.4927 28.788H60.5Z" fill="url(#paint4_linear_19_1431)"/>
<path d="M50.8994 28.788C50.8994 39.5992 41.7664 48.3632 30.5 48.3632C19.2336 48.3632 10.1006 39.5992 10.1006 28.788C10.1006 17.9767 19.2336 9.21271 30.5 9.21271C41.7664 9.21271 50.8994 17.9767 50.8994 28.788Z" fill="#FFF266"/>
<path d="M50.7753 28.788C50.7753 39.5291 41.7007 48.244 30.5001 48.244C19.2994 48.244 10.2249 39.5361 10.2249 28.788C10.2249 18.0398 19.2994 9.33191 30.5001 9.33191C41.7007 9.33191 50.7753 18.0398 50.7753 28.788Z" fill="#FF9F05"/>
<path d="M30.5001 11.6176C41.2989 11.6176 50.1177 19.7155 50.7387 29.9308C50.7607 29.5522 50.7753 29.1736 50.7753 28.788C50.7753 18.0398 41.7007 9.33191 30.5001 9.33191C19.2994 9.33191 10.2249 18.0398 10.2249 28.788C10.2249 29.1736 10.2395 29.5522 10.2614 29.9308C10.8824 19.7225 19.7012 11.6176 30.5001 11.6176Z" fill="#E87500"/>
<path d="M30.5001 0C27.8479 0 25.2833 0.336537 22.8357 0.953523L23.5444 4.39602C23.6905 5.09714 24.6842 6.11376 25.7729 6.11376H35.2346C36.3306 6.11376 37.3242 5.09714 37.4631 4.39602L38.1718 0.953523C35.7241 0.336537 33.1523 0 30.5074 0L30.5001 0Z" fill="url(#paint5_linear_19_1431)"/>
<path d="M4.51862 14.394C3.19616 16.5956 2.2098 18.8952 1.54492 21.244L5.00815 22.3798C5.70956 22.6112 7.127 22.2886 7.67497 21.3842L12.4022 13.5247C12.9502 12.6202 12.5264 11.2811 11.9711 10.8113L9.21662 8.50464C7.43386 10.2294 5.84838 12.1995 4.52593 14.4011L4.51862 14.394Z" fill="url(#paint6_linear_19_1431)"/>
<path d="M4.51862 43.1819C5.84107 45.3834 7.42656 47.3536 9.20932 49.0783L11.9638 46.7716C12.5191 46.3019 12.9429 44.9698 12.4022 44.0583L7.67497 36.1988C7.127 35.2943 5.70956 34.9788 5.00815 35.2032L1.54492 36.339C2.2098 38.6807 3.19616 40.9804 4.51862 43.1889V43.1819Z" fill="url(#paint7_linear_19_1431)"/>
<path d="M30.4998 57.576C33.152 57.576 35.7166 57.2394 38.1642 56.6225L37.4555 53.18C37.3094 52.4788 36.3157 51.4622 35.2271 51.4622H25.7653C24.6766 51.4622 23.6757 52.4788 23.5368 53.18L22.8281 56.6225C25.2758 57.2394 27.8476 57.576 30.4925 57.576H30.4998Z" fill="url(#paint8_linear_19_1431)"/>
<path d="M56.4816 43.182C57.8113 40.9805 58.7904 38.6808 59.4553 36.3321L55.9921 35.1962C55.2906 34.9649 53.8732 35.2804 53.3252 36.1918L48.598 44.0514C48.05 44.9558 48.4738 46.295 49.0291 46.7647L51.7836 49.0714C53.5663 47.3466 55.1518 45.3765 56.4743 43.175L56.4816 43.182Z" fill="url(#paint9_linear_19_1431)"/>
<path d="M56.4814 14.394C55.1589 12.1925 53.5734 10.2224 51.7907 8.49762L49.0362 10.8043C48.4809 11.2741 48.0571 12.6062 48.6051 13.5176L53.3323 21.3772C53.8803 22.2816 55.2904 22.6041 55.9991 22.3728L59.4624 21.237C58.7975 18.8952 57.8111 16.5956 56.4887 14.387L56.4814 14.394Z" fill="url(#paint10_linear_19_1431)"/>
<path d="M23.7926 36V26.048L24.4966 26.592H21.5046V24.32H26.4006V36H23.7926ZM33.9323 36.304C33.0043 36.304 32.2096 36.1547 31.5483 35.856C30.887 35.5467 30.3483 35.1307 29.9323 34.608C29.527 34.0853 29.223 33.4827 29.0203 32.8C28.8283 32.1067 28.7323 31.376 28.7323 30.608V29.696C28.7323 28.6293 28.919 27.664 29.2923 26.8C29.6656 25.936 30.2363 25.248 31.0043 24.736C31.7723 24.224 32.7483 23.968 33.9323 23.968C35.1163 23.968 36.087 24.224 36.8443 24.736C37.6123 25.248 38.183 25.936 38.5563 26.8C38.9296 27.664 39.1163 28.6293 39.1163 29.696V30.608C39.1163 31.376 39.015 32.1067 38.8123 32.8C38.6203 33.4827 38.3163 34.0853 37.9003 34.608C37.495 35.1307 36.9616 35.5467 36.3003 35.856C35.6496 36.1547 34.8603 36.304 33.9323 36.304ZM33.9323 33.888C34.7963 33.888 35.4363 33.5893 35.8523 32.992C36.279 32.384 36.4923 31.4453 36.4923 30.176C36.4923 28.832 36.2736 27.8667 35.8363 27.28C35.4096 26.6827 34.775 26.384 33.9323 26.384C33.0683 26.384 32.423 26.6827 31.9963 27.28C31.5696 27.8667 31.3563 28.8213 31.3563 30.144C31.3563 31.424 31.5643 32.368 31.9803 32.976C32.407 33.584 33.0576 33.888 33.9323 33.888Z" fill="black"/>
</g>
<defs>
<linearGradient id="paint0_linear_19_1431" x1="30.5002" y1="2.81149" x2="30.5002" y2="52.2685" gradientUnits="userSpaceOnUse">
<stop stop-color="#FFEA05"/>
<stop offset="0.19" stop-color="#FFD905"/>
<stop offset="0.72" stop-color="#FFAF05"/>
<stop offset="1" stop-color="#FF9F05"/>
</linearGradient>
<linearGradient id="paint1_linear_19_1431" x1="10.919" y1="48.223" x2="4.46526" y2="37.4322" gradientUnits="userSpaceOnUse">
<stop stop-color="#38393B"/>
<stop offset="0.33" stop-color="#2E2F31"/>
<stop offset="1" stop-color="#1F2021"/>
</linearGradient>
<linearGradient id="paint2_linear_19_1431" x1="50.0811" y1="48.223" x2="56.5348" y2="37.4322" gradientUnits="userSpaceOnUse">
<stop stop-color="#38393B"/>
<stop offset="0.33" stop-color="#2E2F31"/>
<stop offset="1" stop-color="#1F2021"/>
</linearGradient>
<linearGradient id="paint3_linear_19_1431" x1="30.3975" y1="67.006" x2="30.4985" y2="58.2699" gradientUnits="userSpaceOnUse">
<stop stop-color="#38393B"/>
<stop offset="0.33" stop-color="#2E2F31"/>
<stop offset="1" stop-color="#1F2021"/>
</linearGradient>
<linearGradient id="paint4_linear_19_1431" x1="8.78544" y1="40.8823" x2="68.4431" y2="4.80438" gradientUnits="userSpaceOnUse">
<stop stop-color="#FFEA05"/>
<stop offset="0.19" stop-color="#FFD905"/>
<stop offset="0.72" stop-color="#FFAF05"/>
<stop offset="1" stop-color="#FF9F05"/>
</linearGradient>
<linearGradient id="paint5_linear_19_1431" x1="22.8357" y1="3.05688" x2="38.1645" y2="3.05688" gradientUnits="userSpaceOnUse">
<stop stop-color="#38393B"/>
<stop offset="0.33" stop-color="#2E2F31"/>
<stop offset="1" stop-color="#1F2021"/>
</linearGradient>
<linearGradient id="paint6_linear_19_1431" x1="3.42877" y1="22.2805" x2="10.6289" y2="9.28451" gradientUnits="userSpaceOnUse">
<stop stop-color="#38393B"/>
<stop offset="0.33" stop-color="#2E2F31"/>
<stop offset="1" stop-color="#1F2021"/>
</linearGradient>
<linearGradient id="paint7_linear_19_1431" x1="11.0943" y1="48.0027" x2="3.89074" y2="35.0005" gradientUnits="userSpaceOnUse">
<stop stop-color="#38393B"/>
<stop offset="0.33" stop-color="#2E2F31"/>
<stop offset="1" stop-color="#1F2021"/>
</linearGradient>
<linearGradient id="paint8_linear_19_1431" x1="38.1715" y1="54.5261" x2="22.8354" y2="54.5261" gradientUnits="userSpaceOnUse">
<stop stop-color="#38393B"/>
<stop offset="0.33" stop-color="#2E2F31"/>
<stop offset="1" stop-color="#1F2021"/>
</linearGradient>
<linearGradient id="paint9_linear_19_1431" x1="57.5432" y1="35.312" x2="50.3397" y2="48.3142" gradientUnits="userSpaceOnUse">
<stop stop-color="#38393B"/>
<stop offset="0.33" stop-color="#2E2F31"/>
<stop offset="1" stop-color="#1F2021"/>
</linearGradient>
<linearGradient id="paint10_linear_19_1431" x1="49.8809" y1="9.56247" x2="57.0844" y2="22.5647" gradientUnits="userSpaceOnUse">
<stop stop-color="#38393B"/>
<stop offset="0.33" stop-color="#2E2F31"/>
<stop offset="1" stop-color="#1F2021"/>
</linearGradient>
<clipPath id="clip0_19_1431">
<rect width="60" height="62" fill="white" transform="translate(0.5)"/>
</clipPath>
</defs>
</svg>
