<svg width="61" height="62" viewBox="0 0 61 62" fill="none" xmlns="http://www.w3.org/2000/svg">
<g clip-path="url(#clip0_19_1348)">
<path d="M60.5 33.212C60.5 49.1134 47.0709 62 30.5 62C13.9291 62 0.5 49.1064 0.5 33.212V28.788H60.4927V33.212H60.5Z" fill="url(#paint0_linear_19_1348)"/>
<path d="M30.5 58.2069C46.9613 58.2069 60.3173 45.4816 60.4927 29.7275V29.0544C60.4927 28.9632 60.4927 28.8791 60.4854 28.788H0.514613C0.514613 28.9983 0.5 29.2086 0.5 29.419C0.5 45.3204 13.9291 58.2069 30.5 58.2069Z" fill="#4D4F52"/>
<path d="M1.54468 40.7421C2.92558 45.6289 5.59972 50.0039 9.20907 53.4884V36.332H1.54468V40.7421Z" fill="url(#paint1_linear_19_1348)"/>
<path d="M59.4552 40.7421C58.0743 45.6289 55.4001 50.0039 51.7908 53.4884V36.332H59.4552V40.7421Z" fill="url(#paint2_linear_19_1348)"/>
<path d="M1.54468 36.956C2.92558 41.8428 5.59972 46.2108 9.20907 49.7024V36.3391H1.54468V36.956Z" fill="white"/>
<path d="M59.4552 36.956C58.0743 41.8428 55.4001 46.2108 51.7908 49.7024V36.3391H59.4552V36.956Z" fill="white"/>
<path d="M22.8357 61.0464C25.2833 61.6634 27.8552 62 30.5001 62C33.145 62 35.7168 61.6704 38.1645 61.0464V56.6294H22.8284V61.0464H22.8357Z" fill="url(#paint3_linear_19_1348)"/>
<path d="M22.8357 57.2534C25.2833 57.8704 27.8552 58.207 30.5001 58.207C33.145 58.207 35.7168 57.8704 38.1645 57.2534V56.6224H22.8284V57.2534H22.8357Z" fill="white"/>
<path d="M60.5 28.788C60.5 31.3961 60.1347 33.9272 59.4625 36.332C57.7893 41.1066 55.2613 45.3905 51.7908 49.0714C48.0865 52.6471 43.4104 55.2973 38.1717 56.6224C35.6072 57.001 33.1522 57.4077 30.5073 57.4077C27.8624 57.4077 25.4586 57.1132 22.8356 56.6224C17.6115 55.3043 12.9501 52.6611 9.25304 49.0994C5.9944 45.3835 3.2472 41.0786 1.54481 36.332C0.865319 33.9272 0.5 31.3961 0.5 28.788C0.5 12.8866 13.9291 0 30.5 0C47.0709 0 60.5 12.8866 60.5 28.788Z" fill="url(#paint4_linear_19_1348)"/>
<path d="M50.8994 28.788C50.8994 39.5992 41.7664 48.3632 30.5 48.3632C19.2336 48.3632 10.1006 39.5992 10.1006 28.788C10.1006 17.9767 19.2336 9.21271 30.5 9.21271C41.7664 9.21271 50.8994 17.9767 50.8994 28.788Z" fill="#4D4F52"/>
<path d="M50.7753 28.788C50.7753 39.5291 41.7007 48.244 30.5001 48.244C19.2994 48.244 10.2249 39.5361 10.2249 28.788C10.2249 18.0398 19.2994 9.33191 30.5001 9.33191C41.7007 9.33191 50.7753 18.0398 50.7753 28.788Z" fill="#1F2021"/>
<path d="M30.5001 11.6176C41.2989 11.6176 50.1177 19.7155 50.7387 29.9308C50.7607 29.5522 50.7753 29.1736 50.7753 28.788C50.7753 18.0398 41.7007 9.33191 30.5001 9.33191C19.2994 9.33191 10.2249 18.0398 10.2249 28.788C10.2249 29.1736 10.2395 29.5522 10.2614 29.9308C10.8751 19.7225 19.7012 11.6176 30.5001 11.6176Z" fill="#151617"/>
<path d="M30.5001 0C27.8479 0 25.2833 0.336537 22.8357 0.953523L23.5444 4.39602C23.6905 5.09714 24.6842 6.11376 25.7729 6.11376H35.2346C36.3233 6.11376 37.3242 5.09714 37.4631 4.39602L38.1718 0.953523C35.7241 0.336537 33.1596 0 30.5074 0L30.5001 0Z" fill="url(#paint5_linear_19_1348)"/>
<path d="M4.51837 14.394C3.19592 16.5955 2.20956 18.8952 1.54468 21.2439L5.0079 22.3797C5.70931 22.6111 7.12675 22.2886 7.67473 21.3841L12.4093 13.5246C12.9572 12.6202 12.5335 11.281 11.9782 10.8113L9.22368 8.50458C7.44093 10.2293 5.85544 12.1995 4.53299 14.401L4.51837 14.394Z" fill="url(#paint6_linear_19_1348)"/>
<path d="M4.51836 43.182C5.84081 45.3835 7.4263 47.3536 9.20905 49.0784L11.9636 46.7717C12.5188 46.3019 12.9426 44.9698 12.4019 44.0584L7.66741 36.1988C7.11943 35.2944 5.70199 34.9789 5.00058 35.2032L1.53735 36.339C2.20223 38.6808 3.1886 40.9804 4.51105 43.189L4.51836 43.182Z" fill="url(#paint7_linear_19_1348)"/>
<path d="M30.5001 57.5759C33.1523 57.5759 35.7168 57.2394 38.1645 56.6224L37.4557 53.1799C37.3096 52.4788 36.3159 51.4622 35.2273 51.4622H25.7655C24.6769 51.4622 23.6759 52.4788 23.5371 53.1799L22.8284 56.6224C25.276 57.2394 27.8479 57.5759 30.4928 57.5759H30.5001Z" fill="url(#paint8_linear_19_1348)"/>
<path d="M56.4816 43.1819C57.8113 40.9804 58.7904 38.6808 59.4553 36.332L55.9921 35.1962C55.2906 34.9648 53.8732 35.2803 53.3252 36.1918L48.598 44.0513C48.05 44.9558 48.4738 46.2949 49.0291 46.7647L51.7836 49.0713C53.5663 47.3466 55.1518 45.3764 56.4743 43.1749L56.4816 43.1819Z" fill="url(#paint9_linear_19_1348)"/>
<path d="M56.4816 14.394C55.1592 12.1925 53.5737 10.2223 51.7909 8.49756L49.0364 10.8042C48.4811 11.274 48.0573 12.6061 48.6053 13.5176L53.3326 21.3771C53.8805 22.2816 55.2907 22.6041 55.9994 22.3727L59.4626 21.2369C58.7977 18.8952 57.8114 16.5955 56.4889 14.387L56.4816 14.394Z" fill="url(#paint10_linear_19_1348)"/>
<path d="M14.3176 34V27.78L14.7576 28.12H12.8876V26.7H15.9476V34H14.3176ZM20.655 34.19C20.075 34.19 19.5783 34.0967 19.165 33.91C18.7516 33.7167 18.415 33.4567 18.155 33.13C17.9016 32.8033 17.7116 32.4267 17.585 32C17.465 31.5667 17.405 31.11 17.405 30.63V30.06C17.405 29.3933 17.5216 28.79 17.755 28.25C17.9883 27.71 18.345 27.28 18.825 26.96C19.305 26.64 19.915 26.48 20.655 26.48C21.395 26.48 22.0016 26.64 22.475 26.96C22.955 27.28 23.3116 27.71 23.545 28.25C23.7783 28.79 23.895 29.3933 23.895 30.06V30.63C23.895 31.11 23.8316 31.5667 23.705 32C23.585 32.4267 23.395 32.8033 23.135 33.13C22.8816 33.4567 22.5483 33.7167 22.135 33.91C21.7283 34.0967 21.235 34.19 20.655 34.19ZM20.655 32.68C21.195 32.68 21.595 32.4933 21.855 32.12C22.1216 31.74 22.255 31.1533 22.255 30.36C22.255 29.52 22.1183 28.9167 21.845 28.55C21.5783 28.1767 21.1816 27.99 20.655 27.99C20.115 27.99 19.7116 28.1767 19.445 28.55C19.1783 28.9167 19.045 29.5133 19.045 30.34C19.045 31.14 19.175 31.73 19.435 32.11C19.7016 32.49 20.1083 32.68 20.655 32.68ZM30.3815 34.19C29.8015 34.19 29.3049 34.0967 28.8915 33.91C28.4782 33.7167 28.1415 33.4567 27.8815 33.13C27.6282 32.8033 27.4382 32.4267 27.3115 32C27.1915 31.5667 27.1315 31.11 27.1315 30.63V30.06C27.1315 29.3933 27.2482 28.79 27.4815 28.25C27.7149 27.71 28.0715 27.28 28.5515 26.96C29.0315 26.64 29.6415 26.48 30.3815 26.48C31.1215 26.48 31.7282 26.64 32.2015 26.96C32.6815 27.28 33.0382 27.71 33.2715 28.25C33.5049 28.79 33.6215 29.3933 33.6215 30.06V30.63C33.6215 31.11 33.5582 31.5667 33.4315 32C33.3115 32.4267 33.1215 32.8033 32.8615 33.13C32.6082 33.4567 32.2749 33.7167 31.8615 33.91C31.4549 34.0967 30.9615 34.19 30.3815 34.19ZM30.3815 32.68C30.9215 32.68 31.3215 32.4933 31.5815 32.12C31.8482 31.74 31.9815 31.1533 31.9815 30.36C31.9815 29.52 31.8449 28.9167 31.5715 28.55C31.3049 28.1767 30.9082 27.99 30.3815 27.99C29.8415 27.99 29.4382 28.1767 29.1715 28.55C28.9049 28.9167 28.7715 29.5133 28.7715 30.34C28.7715 31.14 28.9015 31.73 29.1615 32.11C29.4282 32.49 29.8349 32.68 30.3815 32.68ZM38.0085 34.19C37.4285 34.19 36.9318 34.0967 36.5185 33.91C36.1051 33.7167 35.7685 33.4567 35.5085 33.13C35.2551 32.8033 35.0651 32.4267 34.9385 32C34.8185 31.5667 34.7585 31.11 34.7585 30.63V30.06C34.7585 29.3933 34.8751 28.79 35.1085 28.25C35.3418 27.71 35.6985 27.28 36.1785 26.96C36.6585 26.64 37.2685 26.48 38.0085 26.48C38.7485 26.48 39.3551 26.64 39.8285 26.96C40.3085 27.28 40.6651 27.71 40.8985 28.25C41.1318 28.79 41.2485 29.3933 41.2485 30.06V30.63C41.2485 31.11 41.1851 31.5667 41.0585 32C40.9385 32.4267 40.7485 32.8033 40.4885 33.13C40.2351 33.4567 39.9018 33.7167 39.4885 33.91C39.0818 34.0967 38.5885 34.19 38.0085 34.19ZM38.0085 32.68C38.5485 32.68 38.9485 32.4933 39.2085 32.12C39.4751 31.74 39.6085 31.1533 39.6085 30.36C39.6085 29.52 39.4718 28.9167 39.1985 28.55C38.9318 28.1767 38.5351 27.99 38.0085 27.99C37.4685 27.99 37.0651 28.1767 36.7985 28.55C36.5318 28.9167 36.3985 29.5133 36.3985 30.34C36.3985 31.14 36.5285 31.73 36.7885 32.11C37.0551 32.49 37.4618 32.68 38.0085 32.68ZM45.6354 34.19C45.0554 34.19 44.5588 34.0967 44.1454 33.91C43.7321 33.7167 43.3954 33.4567 43.1354 33.13C42.8821 32.8033 42.6921 32.4267 42.5654 32C42.4454 31.5667 42.3854 31.11 42.3854 30.63V30.06C42.3854 29.3933 42.5021 28.79 42.7354 28.25C42.9688 27.71 43.3254 27.28 43.8054 26.96C44.2854 26.64 44.8954 26.48 45.6354 26.48C46.3754 26.48 46.9821 26.64 47.4554 26.96C47.9354 27.28 48.2921 27.71 48.5254 28.25C48.7588 28.79 48.8754 29.3933 48.8754 30.06V30.63C48.8754 31.11 48.8121 31.5667 48.6854 32C48.5654 32.4267 48.3754 32.8033 48.1154 33.13C47.8621 33.4567 47.5288 33.7167 47.1154 33.91C46.7088 34.0967 46.2154 34.19 45.6354 34.19ZM45.6354 32.68C46.1754 32.68 46.5754 32.4933 46.8354 32.12C47.1021 31.74 47.2354 31.1533 47.2354 30.36C47.2354 29.52 47.0988 28.9167 46.8254 28.55C46.5588 28.1767 46.1621 27.99 45.6354 27.99C45.0954 27.99 44.6921 28.1767 44.4254 28.55C44.1588 28.9167 44.0254 29.5133 44.0254 30.34C44.0254 31.14 44.1554 31.73 44.4154 32.11C44.6821 32.49 45.0888 32.68 45.6354 32.68Z" fill="white"/>
</g>
<defs>
<linearGradient id="paint0_linear_19_1348" x1="30.5" y1="2.6923" x2="30.5" y2="52.3736" gradientUnits="userSpaceOnUse">
<stop stop-color="#38393B"/>
<stop offset="0.33" stop-color="#2E2F31"/>
<stop offset="1" stop-color="#1F2021"/>
</linearGradient>
<linearGradient id="paint1_linear_19_1348" x1="10.9188" y1="48.223" x2="4.46501" y2="37.4322" gradientUnits="userSpaceOnUse">
<stop stop-color="white"/>
<stop offset="0.15" stop-color="#F2F4F8"/>
<stop offset="0.71" stop-color="#C8D1E1"/>
<stop offset="1" stop-color="#B8C4D9"/>
</linearGradient>
<linearGradient id="paint2_linear_19_1348" x1="50.0811" y1="48.223" x2="56.5348" y2="37.4322" gradientUnits="userSpaceOnUse">
<stop stop-color="white"/>
<stop offset="0.15" stop-color="#F2F4F8"/>
<stop offset="0.71" stop-color="#C8D1E1"/>
<stop offset="1" stop-color="#B8C4D9"/>
</linearGradient>
<linearGradient id="paint3_linear_19_1348" x1="30.3978" y1="67.006" x2="30.4987" y2="58.2699" gradientUnits="userSpaceOnUse">
<stop stop-color="white"/>
<stop offset="0.15" stop-color="#F2F4F8"/>
<stop offset="0.71" stop-color="#C8D1E1"/>
<stop offset="1" stop-color="#B8C4D9"/>
</linearGradient>
<linearGradient id="paint4_linear_19_1348" x1="8.80005" y1="40.8683" x2="68.7299" y2="4.6336" gradientUnits="userSpaceOnUse">
<stop stop-color="#38393B"/>
<stop offset="0.33" stop-color="#2E2F31"/>
<stop offset="1" stop-color="#1F2021"/>
</linearGradient>
<linearGradient id="paint5_linear_19_1348" x1="22.8357" y1="3.05688" x2="38.1645" y2="3.05688" gradientUnits="userSpaceOnUse">
<stop stop-color="white"/>
<stop offset="0.15" stop-color="#F2F4F8"/>
<stop offset="0.71" stop-color="#C8D1E1"/>
<stop offset="1" stop-color="#B8C4D9"/>
</linearGradient>
<linearGradient id="paint6_linear_19_1348" x1="3.43362" y1="22.2847" x2="10.6372" y2="9.28245" gradientUnits="userSpaceOnUse">
<stop stop-color="white"/>
<stop offset="0.15" stop-color="#F2F4F8"/>
<stop offset="0.71" stop-color="#C8D1E1"/>
<stop offset="1" stop-color="#B8C4D9"/>
</linearGradient>
<linearGradient id="paint7_linear_19_1348" x1="11.1028" y1="48.0074" x2="3.89922" y2="35.0051" gradientUnits="userSpaceOnUse">
<stop stop-color="white"/>
<stop offset="0.15" stop-color="#F2F4F8"/>
<stop offset="0.71" stop-color="#C8D1E1"/>
<stop offset="1" stop-color="#B8C4D9"/>
</linearGradient>
<linearGradient id="paint8_linear_19_1348" x1="38.1645" y1="54.5261" x2="22.8357" y2="54.5261" gradientUnits="userSpaceOnUse">
<stop stop-color="white"/>
<stop offset="0.15" stop-color="#F2F4F8"/>
<stop offset="0.71" stop-color="#C8D1E1"/>
<stop offset="1" stop-color="#B8C4D9"/>
</linearGradient>
<linearGradient id="paint9_linear_19_1348" x1="57.5446" y1="35.3073" x2="50.3411" y2="48.3095" gradientUnits="userSpaceOnUse">
<stop stop-color="white"/>
<stop offset="0.15" stop-color="#F2F4F8"/>
<stop offset="0.71" stop-color="#C8D1E1"/>
<stop offset="1" stop-color="#B8C4D9"/>
</linearGradient>
<linearGradient id="paint10_linear_19_1348" x1="49.8726" y1="9.56173" x2="57.0761" y2="22.5639" gradientUnits="userSpaceOnUse">
<stop stop-color="white"/>
<stop offset="0.15" stop-color="#F2F4F8"/>
<stop offset="0.71" stop-color="#C8D1E1"/>
<stop offset="1" stop-color="#B8C4D9"/>
</linearGradient>
<clipPath id="clip0_19_1348">
<rect width="60" height="62" fill="white" transform="translate(0.5)"/>
</clipPath>
</defs>
</svg>
